<?xml version="1.0" encoding="UTF-8"?>
<svg id="Layer_2" data-name="Layer 2" xmlns="http://www.w3.org/2000/svg" viewBox="0 0 396.85 99.21">
  <defs>
    <style>
      .cls-1, .cls-2, .cls-3, .cls-4, .cls-5, .cls-6 {
        stroke-width: 0px;
      }

      .cls-2 {
        fill: #171627;
      }

      .cls-3 {
        fill: #f0f0f0;
      }

      .cls-4 {
        fill: #7e4c78;
      }

      .cls-5 {
        fill: #fff;
      }

      .cls-6 {
        fill: #3d3450;
      }
    </style>
  </defs>
  <g id="Layer_1-2" data-name="Layer 1">
    <g>
      <path class="cls-3" d="M12.03,0h87.19v99.21H12.03c-6.64,0-12.03-5.38-12.03-12.03V12.03C0,5.38,5.38,0,12.03,0Z"/>
      <rect class="cls-4" x="99.21" y="0" width="99.21" height="99.21"/>
      <rect class="cls-6" x="198.43" width="99.21" height="99.21"/>
      <path class="cls-2" d="M297.64,0h87.19c6.64,0,12.03,5.38,12.03,12.03v75.16c0,6.64-5.38,12.03-12.03,12.03h-87.19V0Z"/>
    </g>
    <g>
      <path class="cls-1" d="M25.62,54.8h-2.28v-9.8h7.41v1.82h-5.12v7.98ZM25.44,49.41h4.7v1.82h-4.7v-1.82Z"/>
      <path class="cls-1" d="M35.7,54.97c-.8,0-1.52-.2-2.15-.59-.63-.4-1.13-.97-1.5-1.72-.37-.75-.55-1.67-.55-2.75s.18-2,.55-2.75c.37-.75.87-1.33,1.5-1.72.63-.4,1.35-.59,2.15-.59s1.53.2,2.16.59c.63.4,1.13.97,1.5,1.72.37.75.55,1.67.55,2.75s-.18,2-.55,2.75c-.37.75-.87,1.33-1.5,1.72-.63.4-1.35.59-2.16.59ZM35.7,53.06c.38,0,.72-.11,1-.33.28-.22.51-.56.67-1.03.16-.47.25-1.07.25-1.81s-.08-1.34-.25-1.81c-.16-.47-.39-.81-.67-1.03s-.62-.33-1-.33-.69.11-.98.33c-.29.22-.52.56-.69,1.03-.17.47-.25,1.07-.25,1.81s.08,1.34.25,1.81c.17.47.4.81.69,1.03.29.22.62.33.98.33Z"/>
      <path class="cls-1" d="M43.91,54.8h-2.28v-9.8h7.41v1.82h-5.12v7.98ZM43.73,49.41h4.7v1.82h-4.7v-1.82Z"/>
      <path class="cls-1" d="M53.99,54.97c-.8,0-1.52-.2-2.15-.59-.63-.4-1.13-.97-1.5-1.72-.37-.75-.55-1.67-.55-2.75s.18-2,.55-2.75c.37-.75.87-1.33,1.5-1.72.63-.4,1.35-.59,2.15-.59s1.53.2,2.16.59c.63.4,1.13.97,1.5,1.72.37.75.55,1.67.55,2.75s-.18,2-.55,2.75c-.37.75-.87,1.33-1.5,1.72-.63.4-1.35.59-2.16.59ZM53.99,53.06c.38,0,.72-.11,1-.33.28-.22.51-.56.67-1.03.16-.47.25-1.07.25-1.81s-.08-1.34-.25-1.81c-.16-.47-.39-.81-.67-1.03s-.62-.33-1-.33-.69.11-.98.33c-.29.22-.52.56-.69,1.03-.17.47-.25,1.07-.25,1.81s.08,1.34.25,1.81c.17.47.4.81.69,1.03.29.22.62.33.98.33Z"/>
      <path class="cls-1" d="M62.19,54.8h-2.28v-9.8h7.41v1.82h-5.12v7.98ZM62.01,49.41h4.7v1.82h-4.7v-1.82Z"/>
      <path class="cls-1" d="M72.27,54.97c-.8,0-1.52-.2-2.15-.59-.63-.4-1.13-.97-1.5-1.72-.37-.75-.55-1.67-.55-2.75s.18-2,.55-2.75c.37-.75.87-1.33,1.5-1.72.63-.4,1.35-.59,2.15-.59s1.53.2,2.16.59c.63.4,1.13.97,1.5,1.72.37.75.55,1.67.55,2.75s-.18,2-.55,2.75c-.37.75-.87,1.33-1.5,1.72-.63.4-1.35.59-2.16.59ZM72.27,53.06c.38,0,.72-.11,1-.33.28-.22.51-.56.67-1.03.16-.47.25-1.07.25-1.81s-.08-1.34-.25-1.81c-.16-.47-.39-.81-.67-1.03s-.62-.33-1-.33-.69.11-.98.33c-.29.22-.52.56-.69,1.03-.17.47-.25,1.07-.25,1.81s.08,1.34.25,1.81c.17.47.4.81.69,1.03.29.22.62.33.98.33Z"/>
    </g>
    <g>
      <path class="cls-5" d="M123.15,54.8l3.95-8.93.59.98h-5.26l.98-1.06v2.67h-2v-3.46h7.85v1.47l-3.64,8.33h-2.46Z"/>
      <path class="cls-5" d="M133.13,52.98h5.33v1.82h-7.59v-9.8h7.41v1.82h-5.15v6.16ZM132.96,48.93h4.72v1.78h-4.72v-1.78Z"/>
      <path class="cls-5" d="M139.31,52.74v-1.53l4.62-6.22h2.38l-4.51,6.22-1.12-.32h7.71v1.85h-9.09ZM144.59,54.8v-2.06l.07-1.85v-1.83h2.14v5.74h-2.21Z"/>
      <path class="cls-5" d="M154.51,54.97c-.76,0-1.46-.12-2.11-.37-.65-.25-1.21-.6-1.69-1.06s-.85-.99-1.11-1.61c-.27-.62-.4-1.29-.4-2.03s.13-1.41.4-2.03c.27-.62.64-1.15,1.12-1.61.48-.46,1.05-.81,1.69-1.06.65-.25,1.35-.37,2.11-.37.85,0,1.62.15,2.31.44.69.29,1.27.73,1.74,1.29l-1.47,1.34c-.33-.38-.7-.67-1.11-.87-.42-.2-.87-.29-1.35-.29-.46,0-.88.08-1.26.23-.38.15-.71.37-.99.65-.28.28-.5.61-.65.99-.15.38-.23.81-.23,1.27s.08.89.23,1.27c.15.38.37.71.65.99.28.28.61.5.99.65.38.15.8.23,1.26.23.49,0,.94-.1,1.35-.3.42-.2.79-.49,1.11-.88l1.47,1.34c-.47.57-1.05,1-1.74,1.3-.69.3-1.47.45-2.32.45Z"/>
      <path class="cls-5" d="M161.03,54.8l3.95-8.93.59.98h-5.26l.98-1.06v2.67h-2v-3.46h7.85v1.47l-3.64,8.33h-2.46Z"/>
      <path class="cls-5" d="M171.97,54.97c-.83,0-1.55-.12-2.16-.36-.61-.24-1.09-.59-1.44-1.04-.35-.45-.52-.99-.52-1.6s.17-1.12.5-1.54c.34-.42.81-.74,1.44-.97.62-.22,1.35-.34,2.18-.34s1.57.11,2.18.34c.62.22,1.09.55,1.44.97.34.42.51.94.51,1.53s-.17,1.15-.51,1.6c-.34.45-.82.8-1.44,1.04-.62.24-1.35.36-2.18.36ZM171.97,50.26c-.76,0-1.42-.1-1.98-.31-.56-.21-1-.51-1.32-.9-.31-.4-.47-.88-.47-1.44s.16-1.06.48-1.48c.32-.42.76-.74,1.33-.97.57-.23,1.22-.34,1.96-.34s1.42.11,1.98.34c.56.23,1.01.55,1.32.97.32.42.48.91.48,1.48s-.15,1.04-.46,1.44c-.31.4-.75.7-1.32.9-.57.21-1.24.31-2,.31ZM171.97,53.3c.57,0,1.02-.13,1.35-.38.33-.25.5-.6.5-1.05,0-.42-.17-.76-.5-1.01-.33-.25-.78-.38-1.35-.38s-1.01.13-1.34.38c-.33.25-.5.59-.5,1.01,0,.45.17.8.5,1.05.33.25.78.38,1.34.38ZM171.97,48.93c.48,0,.85-.11,1.13-.32s.41-.51.41-.9-.14-.68-.43-.9c-.29-.21-.66-.32-1.11-.32s-.81.11-1.09.32c-.28.21-.42.52-.42.91s.13.67.41.88c.27.21.64.32,1.11.32Z"/>
    </g>
    <g>
      <path class="cls-5" d="M224.02,54.97c-.68,0-1.35-.09-2.02-.27-.66-.18-1.23-.45-1.71-.79l.88-1.72c.37.27.8.49,1.29.65s.99.25,1.5.25c.57,0,1.02-.11,1.34-.34.33-.23.49-.54.49-.93s-.14-.67-.43-.88-.76-.32-1.4-.32h-1.02v-1.48l2.72-3.11.25.81h-5.14v-1.82h6.86v1.47l-2.72,3.09-1.15-.66h.66c1.2,0,2.12.27,2.74.81.62.54.93,1.23.93,2.07,0,.56-.15,1.08-.44,1.57s-.74.88-1.34,1.17c-.6.29-1.37.44-2.31.44Z"/>
      <path class="cls-5" d="M229.76,54.8v-9.8h4.45c1.06,0,2,.2,2.81.61s1.45.98,1.9,1.71.69,1.59.69,2.58-.23,1.85-.69,2.58c-.46.73-1.09,1.3-1.9,1.71-.81.41-1.75.61-2.81.61h-4.45ZM232.04,52.95h2.06c.65,0,1.22-.12,1.7-.37s.85-.6,1.12-1.06c.27-.46.4-1,.4-1.62s-.13-1.17-.4-1.62c-.27-.46-.64-.81-1.12-1.06-.48-.25-1.05-.37-1.7-.37h-2.06v6.1Z"/>
      <path class="cls-5" d="M243.69,54.97c-.68,0-1.35-.09-2.02-.27-.66-.18-1.23-.45-1.71-.79l.88-1.72c.37.27.8.49,1.29.65.49.16.99.25,1.5.25.57,0,1.02-.11,1.34-.34.33-.23.49-.54.49-.93s-.14-.67-.43-.88c-.29-.21-.76-.32-1.4-.32h-1.02v-1.48l2.72-3.11.25.81h-5.14v-1.82h6.86v1.47l-2.72,3.09-1.15-.66h.66c1.2,0,2.12.27,2.74.81.62.54.93,1.23.93,2.07,0,.56-.15,1.08-.44,1.57s-.74.88-1.34,1.17-1.37.44-2.31.44Z"/>
      <path class="cls-5" d="M248.7,52.74v-1.53l4.62-6.22h2.38l-4.51,6.22-1.12-.32h7.71v1.85h-9.09ZM253.98,54.8v-2.06l.07-1.85v-1.83h2.14v5.74h-2.21Z"/>
      <path class="cls-5" d="M261.79,54.97c-.68,0-1.36-.09-2.02-.27-.67-.18-1.24-.45-1.71-.79l.9-1.72c.36.27.79.49,1.28.65s.99.25,1.5.25c.57,0,1.02-.11,1.35-.34.33-.23.5-.54.5-.95,0-.26-.07-.49-.2-.67-.13-.19-.37-.33-.7-.44-.33-.11-.8-.16-1.39-.16h-2.49l.49-5.52h5.99v1.82h-5.18l1.18-1.04-.36,3.93-1.16-1.02h2.07c.97,0,1.75.13,2.34.39s1.02.62,1.29,1.08c.28.46.41.98.41,1.56s-.14,1.1-.43,1.6c-.29.5-.74.89-1.34,1.19-.6.3-1.37.45-2.3.45Z"/>
      <path class="cls-5" d="M270.99,54.97c-.8,0-1.52-.2-2.15-.59s-1.13-.97-1.5-1.72c-.37-.75-.55-1.67-.55-2.75s.18-2,.55-2.75.87-1.33,1.5-1.72c.63-.4,1.35-.59,2.15-.59s1.53.2,2.16.59c.63.4,1.13.97,1.5,1.72.37.75.55,1.67.55,2.75s-.18,2-.55,2.75c-.37.75-.87,1.33-1.5,1.72-.63.4-1.35.59-2.16.59ZM270.99,53.06c.38,0,.72-.11,1-.33.28-.22.51-.56.67-1.03.16-.47.25-1.07.25-1.81s-.08-1.34-.25-1.81c-.16-.47-.39-.81-.67-1.03-.29-.22-.62-.33-1-.33s-.69.11-.98.33-.52.56-.69,1.03c-.17.47-.25,1.07-.25,1.81s.08,1.34.25,1.81.4.81.69,1.03c.29.22.62.33.98.33Z"/>
    </g>
    <g>
      <path class="cls-5" d="M326.48,54.8v-8.96l.98.98h-2.94v-1.82h4.23v9.8h-2.27Z"/>
      <path class="cls-5" d="M332.02,54.8l3.95-8.93.59.98h-5.26l.98-1.06v2.67h-2v-3.46h7.85v1.47l-3.64,8.33h-2.46Z"/>
      <path class="cls-5" d="M340.78,54.8v-8.96l.98.98h-2.94v-1.82h4.23v9.8h-2.27Z"/>
      <path class="cls-5" d="M349.14,54.97c-.9,0-1.67-.18-2.32-.55-.65-.37-1.16-.92-1.52-1.64-.36-.72-.54-1.61-.54-2.65,0-1.14.21-2.1.64-2.88s1.01-1.38,1.76-1.79c.75-.41,1.62-.62,2.61-.62.51,0,1.01.06,1.48.17.48.12.89.28,1.23.5l-.84,1.67c-.27-.19-.56-.31-.87-.39-.31-.07-.63-.1-.97-.1-.84,0-1.51.26-2.02.78-.5.52-.76,1.28-.76,2.27,0,.17,0,.35.01.56,0,.21.04.41.08.62l-.63-.59c.18-.36.41-.67.69-.92.28-.25.61-.43,1-.56.39-.13.81-.19,1.28-.19.63,0,1.2.13,1.71.38s.91.61,1.21,1.06c.3.46.46.99.46,1.61,0,.66-.16,1.24-.49,1.73-.33.49-.77.87-1.33,1.13-.56.27-1.19.4-1.89.4ZM349.02,53.27c.32,0,.6-.06.85-.17.25-.12.44-.29.58-.51.14-.22.21-.48.21-.77,0-.45-.15-.8-.46-1.07-.3-.27-.71-.4-1.21-.4-.34,0-.63.07-.88.2s-.45.31-.59.52c-.14.22-.22.47-.22.76,0,.27.07.52.21.73.14.22.34.39.59.52s.56.19.92.19Z"/>
      <path class="cls-5" d="M353.59,54.8v-1.47l3.78-3.57c.3-.27.52-.51.67-.72.14-.21.24-.41.29-.59.05-.18.07-.35.07-.51,0-.38-.13-.68-.39-.9-.26-.21-.65-.32-1.18-.32-.42,0-.8.08-1.15.25-.35.17-.64.42-.88.74l-1.64-1.06c.36-.56.88-1,1.55-1.33s1.45-.49,2.32-.49c.73,0,1.37.12,1.92.35.55.23.98.57,1.28,1,.3.43.46.95.46,1.55,0,.31-.04.62-.13.94s-.25.65-.48.99c-.23.35-.58.73-1.04,1.16l-3.14,2.94-.43-.81h5.54v1.85h-7.42Z"/>
      <path class="cls-5" d="M363.5,54.8l3.95-8.93.59.98h-5.26l.98-1.06v2.67h-2v-3.46h7.85v1.47l-3.64,8.33h-2.46Z"/>
    </g>
  </g>
</svg>