<?xml version="1.0" encoding="UTF-8"?><svg xmlns="http://www.w3.org/2000/svg" viewBox="0 0 942 942"><defs><style>.cls-1{fill:#fff;}.cls-2,.cls-3,.cls-4{stroke:#000;stroke-miterlimit:10;}.cls-2,.cls-4{fill:none;}.cls-3{fill:#864879;}.cls-4{stroke-linecap:round;stroke-width:27px;}</style></defs><g id="Layer_1"><rect class="cls-1" x=".5" y=".5" width="941" height="941" rx="133.196" ry="133.196"/><polygon class="cls-1" points="708.284 473.5 765.746 478.798 691.46 481.494 687.537 485.287 777.077 495.535 787.369 501.984 773.103 506.212 697.248 502.288 761.51 515.605 769.351 522.22 754.575 525.1 755.551 530.585 699.024 523.691 716.021 532.015 692.712 530.765 698.226 536.551 676.565 534.627 752.637 562.473 715.818 555.828 708.052 558.019 738.156 574.09 714.166 570.166 666.12 555.341 751.252 596.609 691.709 575.428 660.078 565.12 676.933 577.809 708.048 598.813 656.83 576.286 716.477 614.733 664.384 589.684 721.359 629.735 710.874 629.293 731.484 649.28 683.138 622.524 712.086 649.19 676.941 629.536 682.129 639.461 636.05 608.484 702.719 669.278 705.419 678.828 692.369 674.616 707.543 696.088 670.726 668.647 661.369 666.381 689.646 702.693 635.763 653.174 676.405 704.951 660.567 695.157 606.805 639.048 600.087 636.86 634.178 686.793 612.898 666.445 638.534 709.287 592.297 651.897 597.789 667.07 618.108 706.301 624.845 726.57 632.017 749.022 620.947 741.161 592.937 701.425 619.389 761.877 594.7 725.611 597.3 742.68 569.682 695.107 581.642 733.422 583.69 751.572 555.03 693.457 563.313 727.708 550.674 706.435 538.82 684.759 561.612 770.908 560.291 786.195 525.021 679.403 527.807 705.77 536.741 762.373 531.23 761.969 512.907 696.502 514.798 730.033 514.511 757.543 499.66 689.752 498.972 715.823 494.949 719.225 492.693 743.828 491.104 790.161 480.586 698.226 476.641 700.611 472.447 693.572 468.5 729.392 463.13 774.819 458.388 756.796 456.198 702.301 446.171 786.245 439.808 794.724 438.297 754.506 434.329 745.532 431.079 733.651 424.133 747.291 426.482 706.122 412.909 753 407.831 752.407 396.768 777.156 410.469 700.722 407.776 694.725 382.209 767.391 378.099 762.202 389.75 710.065 363.793 770.27 358.846 767.445 359.142 751.394 358.73 738.466 351.734 741.7 350.721 731.359 354.243 712.305 361.348 687.601 368.748 664.284 338.714 711.17 312.226 747.832 330.789 705.587 355.388 656.701 343.208 668.515 341.753 663.25 322.881 683.243 328.808 667.254 315.081 678.451 315.282 670.748 279.836 707.575 304.895 669.265 272.158 700.058 322.657 635.878 291.087 664.046 314.978 632.6 312.701 629.289 244.903 689.246 264.886 663.061 228.805 688.814 271.076 644.552 226.126 676.075 247.496 651.594 232.858 656.563 217.847 661.163 242.378 636.553 288.162 598.647 250.695 619.013 280.93 593.982 267.643 597.527 267.449 592.74 221.94 613.906 204.859 617.479 255.736 584.759 239.351 588.184 278.082 564.552 207.987 592.477 214.288 584.153 178.79 593.516 193.584 581.67 192.211 576.552 264.025 545.634 190.937 565.878 163.291 569.052 253.747 536.579 254.597 532.211 202.337 541.432 195.615 537.977 154.134 541.838 248.083 517.396 205.69 520.923 160.414 523.377 240.399 506.349 156.009 512.698 253.247 496.71 151.104 501.852 216.606 491.537 182.235 488.833 156.67 484.614 170.038 478.82 192.048 473.5 156.045 467.935 246.493 465.539 174.886 457.779 242.909 457.317 185.955 448.225 250.434 449.988 222.417 442.556 172.572 430.979 218.234 432.916 227.745 430.024 244.914 428.971 216.169 418.587 241.177 419.741 256.958 419.46 236.414 409.803 189.393 391.544 234.762 400.294 237.388 396.565 265.27 401.796 262.784 396.771 198.886 367.403 250.672 383.279 172.741 344.721 207.695 354.374 179.628 335.244 272.734 375.545 187.532 326.475 204.283 329.187 274.114 362.851 269.284 355.336 199.057 306.999 262.266 340.983 257.258 332.363 255.499 325.615 234.646 304.84 217.13 285.275 248.361 302.474 224.211 276.595 240.69 283.085 241.782 277.019 263.626 289.458 284.416 302.107 233.612 246.828 254.75 259.736 322.243 321.907 279.223 270.191 261.428 242.975 259.844 232.713 261.951 226.376 272.785 230.655 321.402 284.093 333.262 292.772 299.968 239.793 341.477 290.465 307.794 233 306.245 221.059 304.579 208.19 320.833 224.636 357.573 278.601 349.615 255.721 354.824 256.124 361.669 260.011 348.122 221.893 336.834 185.245 368.043 242.682 381.801 264.138 359.528 196.548 393.589 272.629 364.727 179.339 397.071 258.909 391.268 226.859 402.197 247.748 388.409 181.487 407.611 235.011 404.085 200.878 400.152 159.088 407.485 166.54 411.62 157.931 424.024 199.001 429.244 200.448 442.07 263.686 445.382 259.109 440.032 154.788 449.049 201.55 454.74 217.056 458.847 203.285 462.915 159.879 468.5 181.671 472.609 244.149 477.549 220.494 485.242 160.541 483.63 262.846 494.308 184.915 494.593 231.154 507.49 162.72 502.857 234.847 503.783 256.189 522.422 174.475 512.221 253.998 523.63 220.17 526.503 228.154 526.962 244.587 552.321 167.905 558.457 167.104 544.67 230.286 569.792 169.183 547.95 248.317 574.448 189.488 560.755 239.035 590.25 179.647 587.188 200.889 585.798 216.691 563.514 274.841 569.161 272.34 604.568 213.435 596.384 239.305 592.684 255.397 624.95 209.899 631.158 210.265 639.598 207.36 649.5 202.72 601.975 281.214 618.982 264.81 637.56 247.689 660.956 225.815 643.448 256.423 623.697 287.785 646.721 267.835 648.529 273.09 647.004 281.782 684.948 249.205 668.863 273.15 628.765 318.874 668.928 286.907 641.725 317.927 627.505 335.765 657.43 315.634 683.835 299.98 644.82 336.582 728.805 278.6 654.488 339.435 669.698 333.843 646.34 354.742 683.092 335.617 690.621 336.312 742.664 310.79 662.005 363.369 753.53 317.818 668.989 368.675 703.475 355.894 683.134 370.842 673.567 379.884 673.359 384.358 746.106 358.503 754.242 361.067 741.006 371.86 744.023 376.302 716.85 390.841 744.72 387.016 685.204 409.849 693.369 411.787 747.874 402.206 783.256 399.166 677.191 428.044 711.459 425.145 736.705 425.11 751.48 427.66 772.879 429.779 699.802 444.398 680.754 450.609 710.974 451.768 790.805 450.498 697.416 461.193 784.035 462.256 744.146 468.58 708.284 473.5"/><polygon class="cls-1" points="708.284 473.5 765.746 478.798 691.46 481.494 687.537 485.287 777.077 495.535 787.369 501.984 773.103 506.212 697.248 502.288 761.51 515.605 769.351 522.22 754.575 525.1 755.551 530.585 699.024 523.691 716.021 532.015 692.712 530.765 698.226 536.551 676.565 534.627 752.637 562.473 715.818 555.828 708.052 558.019 738.156 574.09 714.166 570.166 666.12 555.341 751.252 596.609 691.709 575.428 660.078 565.12 676.933 577.809 708.048 598.813 656.83 576.286 716.477 614.733 664.384 589.684 721.359 629.735 710.874 629.293 731.484 649.28 683.138 622.524 712.086 649.19 676.941 629.536 682.129 639.461 636.05 608.484 702.719 669.278 705.419 678.828 692.369 674.616 707.543 696.088 670.726 668.647 661.369 666.381 689.646 702.693 635.763 653.174 676.405 704.951 660.567 695.157 606.805 639.048 600.087 636.86 634.178 686.793 612.898 666.445 638.534 709.287 592.297 651.897 597.789 667.07 618.108 706.301 624.845 726.57 632.017 749.022 620.947 741.161 592.937 701.425 619.389 761.877 594.7 725.611 597.3 742.68 569.682 695.107 581.642 733.422 583.69 751.572 555.03 693.457 563.313 727.708 550.674 706.435 538.82 684.759 561.612 770.908 560.291 786.195 525.021 679.403 527.807 705.77 536.741 762.373 531.23 761.969 512.907 696.502 514.798 730.033 514.511 757.543 499.66 689.752 498.972 715.823 494.949 719.225 492.693 743.828 491.104 790.161 480.586 698.226 476.641 700.611 472.447 693.572 468.5 729.392 463.13 774.819 458.388 756.796 456.198 702.301 446.171 786.245 439.808 794.724 438.297 754.506 434.329 745.532 431.079 733.651 424.133 747.291 426.482 706.122 412.909 753 407.831 752.407 396.768 777.156 410.469 700.722 407.776 694.725 382.209 767.391 378.099 762.202 389.75 710.065 363.793 770.27 358.846 767.445 359.142 751.394 358.73 738.466 351.734 741.7 350.721 731.359 354.243 712.305 361.348 687.601 368.748 664.284 338.714 711.17 312.226 747.832 330.789 705.587 355.388 656.701 343.208 668.515 341.753 663.25 322.881 683.243 328.808 667.254 315.081 678.451 315.282 670.748 279.836 707.575 304.895 669.265 272.158 700.058 322.657 635.878 291.087 664.046 314.978 632.6 312.701 629.289 244.903 689.246 264.886 663.061 228.805 688.814 271.076 644.552 226.126 676.075 247.496 651.594 232.858 656.563 217.847 661.163 242.378 636.553 288.162 598.647 250.695 619.013 280.93 593.982 267.643 597.527 267.449 592.74 221.94 613.906 204.859 617.479 255.736 584.759 239.351 588.184 278.082 564.552 207.987 592.477 214.288 584.153 178.79 593.516 193.584 581.67 192.211 576.552 264.025 545.634 190.937 565.878 163.291 569.052 253.747 536.579 254.597 532.211 202.337 541.432 195.615 537.977 154.134 541.838 248.083 517.396 205.69 520.923 160.414 523.377 240.399 506.349 156.009 512.698 253.247 496.71 151.104 501.852 216.606 491.537 182.235 488.833 156.67 484.614 170.038 478.82 192.048 473.5 156.045 467.935 246.493 465.539 174.886 457.779 242.909 457.317 185.955 448.225 250.434 449.988 222.417 442.556 172.572 430.979 218.234 432.916 227.745 430.024 244.914 428.971 216.169 418.587 241.177 419.741 256.958 419.46 236.414 409.803 189.393 391.544 234.762 400.294 237.388 396.565 265.27 401.796 262.784 396.771 198.886 367.403 250.672 383.279 172.741 344.721 207.695 354.374 179.628 335.244 272.734 375.545 187.532 326.475 204.283 329.187 274.114 362.851 269.284 355.336 199.057 306.999 262.266 340.983 257.258 332.363 255.499 325.615 234.646 304.84 217.13 285.275 248.361 302.474 224.211 276.595 240.69 283.085 241.782 277.019 263.626 289.458 284.416 302.107 233.612 246.828 254.75 259.736 322.243 321.907 279.223 270.191 261.428 242.975 259.844 232.713 261.951 226.376 272.785 230.655 321.402 284.093 333.262 292.772 299.968 239.793 341.477 290.465 307.794 233 306.245 221.059 304.579 208.19 320.833 224.636 357.573 278.601 349.615 255.721 354.824 256.124 361.669 260.011 348.122 221.893 336.834 185.245 368.043 242.682 381.801 264.138 359.528 196.548 393.589 272.629 364.727 179.339 397.071 258.909 391.268 226.859 402.197 247.748 388.409 181.487 407.611 235.011 404.085 200.878 400.152 159.088 407.485 166.54 411.62 157.931 424.024 199.001 429.244 200.448 442.07 263.686 445.382 259.109 440.032 154.788 449.049 201.55 454.74 217.056 458.847 203.285 462.915 159.879 468.5 181.671 472.609 244.149 477.549 220.494 485.242 160.541 483.63 262.846 494.308 184.915 494.593 231.154 507.49 162.72 502.857 234.847 503.783 256.189 522.422 174.475 512.221 253.998 523.63 220.17 526.503 228.154 526.962 244.587 552.321 167.905 558.457 167.104 544.67 230.286 569.792 169.183 547.95 248.317 574.448 189.488 560.755 239.035 590.25 179.647 587.188 200.889 585.798 216.691 563.514 274.841 569.161 272.34 604.568 213.435 596.384 239.305 592.684 255.397 624.95 209.899 631.158 210.265 639.598 207.36 649.5 202.72 601.975 281.214 618.982 264.81 637.56 247.689 660.956 225.815 643.448 256.423 623.697 287.785 646.721 267.835 648.529 273.09 647.004 281.782 684.948 249.205 668.863 273.15 628.765 318.874 668.928 286.907 641.725 317.927 627.505 335.765 657.43 315.634 683.835 299.98 644.82 336.582 728.805 278.6 654.488 339.435 669.698 333.843 646.34 354.742 683.092 335.617 690.621 336.312 742.664 310.79 662.005 363.369 753.53 317.818 668.989 368.675 703.475 355.894 683.134 370.842 673.567 379.884 673.359 384.358 746.106 358.503 754.242 361.067 741.006 371.86 744.023 376.302 716.85 390.841 744.72 387.016 685.204 409.849 693.369 411.787 747.874 402.206 783.256 399.166 677.191 428.044 711.459 425.145 736.705 425.11 751.48 427.66 772.879 429.779 699.802 444.398 680.754 450.609 710.974 451.768 790.805 450.498 697.416 461.193 784.035 462.256 744.146 468.58 708.284 473.5"/><path class="cls-1" d="m317.5,380.5c-23.642-58.789-80.298-94.194-136-88-60.711,6.751-92.441,59.822-96,66"/><path class="cls-1" d="m317.628,458.552c-28.653-56.516-88.168-86.872-143.122-75.868-59.896,11.993-86.902,67.617-89.911,74.081"/><path class="cls-1" d="m328.495,537.14c-34.292-53.284-96.603-77.383-150.142-60.807-58.353,18.066-79.518,76.164-81.849,82.902"/><path class="cls-1" d="m364.584,616.244c-38.559-50.283-102.64-69.175-154.634-48.252-56.669,22.804-72.984,82.446-74.754,89.353"/><path class="cls-1" d="m620.306,371.362c23.642-58.789,80.298-94.194,136-88,60.711,6.751,92.441,59.822,96,66"/><path class="cls-1" d="m620.178,449.415c28.653-56.516,88.168-86.872,143.122-75.868,59.896,11.993,86.902,67.617,89.911,74.081"/><path class="cls-1" d="m609.312,528.002c34.292-53.284,96.603-77.383,150.142-60.807,58.353,18.066,79.518,76.164,81.849,82.902"/><path class="cls-1" d="m573.222,607.106c38.559-50.283,102.64-69.175,154.634-48.252,56.669,22.804,72.984,82.446,74.754,89.353"/><rect class="cls-3" x=".5" y=".5" width="941" height="941" rx="133.196" ry="133.196"/><polygon points="708.284 473.5 765.746 478.798 691.46 481.494 687.537 485.287 777.077 495.535 787.369 501.984 773.103 506.212 697.248 502.288 761.51 515.605 769.351 522.22 754.575 525.1 755.551 530.585 699.024 523.691 716.021 532.015 692.712 530.765 698.226 536.551 676.565 534.627 752.637 562.473 715.818 555.828 708.052 558.019 738.156 574.09 714.166 570.166 666.12 555.341 751.252 596.609 691.709 575.428 660.078 565.12 676.933 577.809 708.048 598.813 656.83 576.286 716.477 614.733 664.384 589.684 721.359 629.735 710.874 629.293 731.484 649.28 683.138 622.524 712.086 649.19 676.941 629.536 682.129 639.461 636.05 608.484 702.719 669.278 705.419 678.828 692.369 674.616 707.543 696.088 670.726 668.647 661.369 666.381 689.646 702.693 635.763 653.174 676.405 704.951 660.567 695.157 606.805 639.048 600.087 636.86 634.178 686.793 612.898 666.445 638.534 709.287 592.297 651.897 597.789 667.07 618.108 706.301 624.845 726.57 632.017 749.022 620.947 741.161 592.937 701.425 619.389 761.877 594.7 725.611 597.3 742.68 569.682 695.107 581.642 733.422 583.69 751.572 555.03 693.457 563.313 727.708 550.674 706.435 538.82 684.759 561.612 770.908 560.291 786.195 525.021 679.403 527.807 705.77 536.741 762.373 531.23 761.969 512.907 696.502 514.798 730.033 514.511 757.543 499.66 689.752 498.972 715.823 494.949 719.225 492.693 743.828 491.104 790.161 480.586 698.226 476.641 700.611 472.447 693.572 468.5 729.392 463.13 774.819 458.388 756.796 456.198 702.301 446.171 786.245 439.808 794.724 438.297 754.506 434.329 745.532 431.079 733.651 424.133 747.291 426.482 706.122 412.909 753 407.831 752.407 396.768 777.156 410.469 700.722 407.776 694.725 382.209 767.391 378.099 762.202 389.75 710.065 363.793 770.27 358.846 767.445 359.142 751.394 358.73 738.466 351.734 741.7 350.721 731.359 354.243 712.305 361.348 687.601 368.748 664.284 338.714 711.17 312.226 747.832 330.789 705.587 355.388 656.701 343.208 668.515 341.753 663.25 322.881 683.243 328.808 667.254 315.081 678.451 315.282 670.748 279.836 707.575 304.895 669.265 272.158 700.058 322.657 635.878 291.087 664.046 314.978 632.6 312.701 629.289 244.903 689.246 264.886 663.061 228.805 688.814 271.076 644.552 226.126 676.075 247.496 651.594 232.858 656.563 217.847 661.163 242.378 636.553 288.162 598.647 250.695 619.013 280.93 593.982 267.643 597.527 267.449 592.74 221.94 613.906 204.859 617.479 255.736 584.759 239.351 588.184 278.082 564.552 207.987 592.477 214.288 584.153 178.79 593.516 193.584 581.67 192.211 576.552 264.025 545.634 190.937 565.878 163.291 569.052 253.747 536.579 254.597 532.211 202.337 541.432 195.615 537.977 154.134 541.838 248.083 517.396 205.69 520.923 160.414 523.377 240.399 506.349 156.009 512.698 253.247 496.71 151.104 501.852 216.606 491.537 182.235 488.833 156.67 484.614 170.038 478.82 192.048 473.5 156.045 467.935 246.493 465.539 174.886 457.779 242.909 457.317 185.955 448.225 250.434 449.988 222.417 442.556 172.572 430.979 218.234 432.916 227.745 430.024 244.914 428.971 216.169 418.587 241.177 419.741 256.958 419.46 236.414 409.803 189.393 391.544 234.762 400.294 237.388 396.565 265.27 401.796 262.784 396.771 198.886 367.403 250.672 383.279 172.741 344.721 207.695 354.374 179.628 335.244 272.734 375.545 187.532 326.475 204.283 329.187 274.114 362.851 269.284 355.336 199.057 306.999 262.266 340.983 257.258 332.363 255.499 325.615 234.646 304.84 217.13 285.275 248.361 302.474 224.211 276.595 240.69 283.085 241.782 277.019 263.626 289.458 284.416 302.107 233.612 246.828 254.75 259.736 322.243 321.907 279.223 270.191 261.428 242.975 259.844 232.713 261.951 226.376 272.785 230.655 321.402 284.093 333.262 292.772 299.968 239.793 341.477 290.465 307.794 233 306.245 221.059 304.579 208.19 320.833 224.636 357.573 278.601 349.615 255.721 354.824 256.124 361.669 260.011 348.122 221.893 336.834 185.245 368.043 242.682 381.801 264.138 359.528 196.548 393.589 272.629 364.727 179.339 397.071 258.909 391.268 226.859 402.197 247.748 388.409 181.487 407.611 235.011 404.085 200.878 400.152 159.088 407.485 166.54 411.62 157.931 424.024 199.001 429.244 200.448 442.07 263.686 445.382 259.109 440.032 154.788 449.049 201.55 454.74 217.056 458.847 203.285 462.915 159.879 468.5 181.671 472.609 244.149 477.549 220.494 485.242 160.541 483.63 262.846 494.308 184.915 494.593 231.154 507.49 162.72 502.857 234.847 503.783 256.189 522.422 174.475 512.221 253.998 523.63 220.17 526.503 228.154 526.962 244.587 552.321 167.905 558.457 167.104 544.67 230.286 569.792 169.183 547.95 248.317 574.448 189.488 560.755 239.035 590.25 179.647 587.188 200.889 585.798 216.691 563.514 274.841 569.161 272.34 604.568 213.435 596.384 239.305 592.684 255.397 624.95 209.899 631.158 210.265 639.598 207.36 649.5 202.72 601.975 281.214 618.982 264.81 637.56 247.689 660.956 225.815 643.448 256.423 623.697 287.785 646.721 267.835 648.529 273.09 647.004 281.782 684.948 249.205 668.863 273.15 628.765 318.874 668.928 286.907 641.725 317.927 627.505 335.765 657.43 315.634 683.835 299.98 644.82 336.582 728.805 278.6 654.488 339.435 669.698 333.843 646.34 354.742 683.092 335.617 690.621 336.312 742.664 310.79 662.005 363.369 753.53 317.818 668.989 368.675 703.475 355.894 683.134 370.842 673.567 379.884 673.359 384.358 746.106 358.503 754.242 361.067 741.006 371.86 744.023 376.302 716.85 390.841 744.72 387.016 685.204 409.849 693.369 411.787 747.874 402.206 783.256 399.166 677.191 428.044 711.459 425.145 736.705 425.11 751.48 427.66 772.879 429.779 699.802 444.398 680.754 450.609 710.974 451.768 790.805 450.498 697.416 461.193 784.035 462.256 744.146 468.58 708.284 473.5"/><polygon class="cls-2" points="708.284 473.5 765.746 478.798 691.46 481.494 687.537 485.287 777.077 495.535 787.369 501.984 773.103 506.212 697.248 502.288 761.51 515.605 769.351 522.22 754.575 525.1 755.551 530.585 699.024 523.691 716.021 532.015 692.712 530.765 698.226 536.551 676.565 534.627 752.637 562.473 715.818 555.828 708.052 558.019 738.156 574.09 714.166 570.166 666.12 555.341 751.252 596.609 691.709 575.428 660.078 565.12 676.933 577.809 708.048 598.813 656.83 576.286 716.477 614.733 664.384 589.684 721.359 629.735 710.874 629.293 731.484 649.28 683.138 622.524 712.086 649.19 676.941 629.536 682.129 639.461 636.05 608.484 702.719 669.278 705.419 678.828 692.369 674.616 707.543 696.088 670.726 668.647 661.369 666.381 689.646 702.693 635.763 653.174 676.405 704.951 660.567 695.157 606.805 639.048 600.087 636.86 634.178 686.793 612.898 666.445 638.534 709.287 592.297 651.897 597.789 667.07 618.108 706.301 624.845 726.57 632.017 749.022 620.947 741.161 592.937 701.425 619.389 761.877 594.7 725.611 597.3 742.68 569.682 695.107 581.642 733.422 583.69 751.572 555.03 693.457 563.313 727.708 550.674 706.435 538.82 684.759 561.612 770.908 560.291 786.195 525.021 679.403 527.807 705.77 536.741 762.373 531.23 761.969 512.907 696.502 514.798 730.033 514.511 757.543 499.66 689.752 498.972 715.823 494.949 719.225 492.693 743.828 491.104 790.161 480.586 698.226 476.641 700.611 472.447 693.572 468.5 729.392 463.13 774.819 458.388 756.796 456.198 702.301 446.171 786.245 439.808 794.724 438.297 754.506 434.329 745.532 431.079 733.651 424.133 747.291 426.482 706.122 412.909 753 407.831 752.407 396.768 777.156 410.469 700.722 407.776 694.725 382.209 767.391 378.099 762.202 389.75 710.065 363.793 770.27 358.846 767.445 359.142 751.394 358.73 738.466 351.734 741.7 350.721 731.359 354.243 712.305 361.348 687.601 368.748 664.284 338.714 711.17 312.226 747.832 330.789 705.587 355.388 656.701 343.208 668.515 341.753 663.25 322.881 683.243 328.808 667.254 315.081 678.451 315.282 670.748 279.836 707.575 304.895 669.265 272.158 700.058 322.657 635.878 291.087 664.046 314.978 632.6 312.701 629.289 244.903 689.246 264.886 663.061 228.805 688.814 271.076 644.552 226.126 676.075 247.496 651.594 232.858 656.563 217.847 661.163 242.378 636.553 288.162 598.647 250.695 619.013 280.93 593.982 267.643 597.527 267.449 592.74 221.94 613.906 204.859 617.479 255.736 584.759 239.351 588.184 278.082 564.552 207.987 592.477 214.288 584.153 178.79 593.516 193.584 581.67 192.211 576.552 264.025 545.634 190.937 565.878 163.291 569.052 253.747 536.579 254.597 532.211 202.337 541.432 195.615 537.977 154.134 541.838 248.083 517.396 205.69 520.923 160.414 523.377 240.399 506.349 156.009 512.698 253.247 496.71 151.104 501.852 216.606 491.537 182.235 488.833 156.67 484.614 170.038 478.82 192.048 473.5 156.045 467.935 246.493 465.539 174.886 457.779 242.909 457.317 185.955 448.225 250.434 449.988 222.417 442.556 172.572 430.979 218.234 432.916 227.745 430.024 244.914 428.971 216.169 418.587 241.177 419.741 256.958 419.46 236.414 409.803 189.393 391.544 234.762 400.294 237.388 396.565 265.27 401.796 262.784 396.771 198.886 367.403 250.672 383.279 172.741 344.721 207.695 354.374 179.628 335.244 272.734 375.545 187.532 326.475 204.283 329.187 274.114 362.851 269.284 355.336 199.057 306.999 262.266 340.983 257.258 332.363 255.499 325.615 234.646 304.84 217.13 285.275 248.361 302.474 224.211 276.595 240.69 283.085 241.782 277.019 263.626 289.458 284.416 302.107 233.612 246.828 254.75 259.736 322.243 321.907 279.223 270.191 261.428 242.975 259.844 232.713 261.951 226.376 272.785 230.655 321.402 284.093 333.262 292.772 299.968 239.793 341.477 290.465 307.794 233 306.245 221.059 304.579 208.19 320.833 224.636 357.573 278.601 349.615 255.721 354.824 256.124 361.669 260.011 348.122 221.893 336.834 185.245 368.043 242.682 381.801 264.138 359.528 196.548 393.589 272.629 364.727 179.339 397.071 258.909 391.268 226.859 402.197 247.748 388.409 181.487 407.611 235.011 404.085 200.878 400.152 159.088 407.485 166.54 411.62 157.931 424.024 199.001 429.244 200.448 442.07 263.686 445.382 259.109 440.032 154.788 449.049 201.55 454.74 217.056 458.847 203.285 462.915 159.879 468.5 181.671 472.609 244.149 477.549 220.494 485.242 160.541 483.63 262.846 494.308 184.915 494.593 231.154 507.49 162.72 502.857 234.847 503.783 256.189 522.422 174.475 512.221 253.998 523.63 220.17 526.503 228.154 526.962 244.587 552.321 167.905 558.457 167.104 544.67 230.286 569.792 169.183 547.95 248.317 574.448 189.488 560.755 239.035 590.25 179.647 587.188 200.889 585.798 216.691 563.514 274.841 569.161 272.34 604.568 213.435 596.384 239.305 592.684 255.397 624.95 209.899 631.158 210.265 639.598 207.36 649.5 202.72 601.975 281.214 618.982 264.81 637.56 247.689 660.956 225.815 643.448 256.423 623.697 287.785 646.721 267.835 648.529 273.09 647.004 281.782 684.948 249.205 668.863 273.15 628.765 318.874 668.928 286.907 641.725 317.927 627.505 335.765 657.43 315.634 683.835 299.98 644.82 336.582 728.805 278.6 654.488 339.435 669.698 333.843 646.34 354.742 683.092 335.617 690.621 336.312 742.664 310.79 662.005 363.369 753.53 317.818 668.989 368.675 703.475 355.894 683.134 370.842 673.567 379.884 673.359 384.358 746.106 358.503 754.242 361.067 741.006 371.86 744.023 376.302 716.85 390.841 744.72 387.016 685.204 409.849 693.369 411.787 747.874 402.206 783.256 399.166 677.191 428.044 711.459 425.145 736.705 425.11 751.48 427.66 772.879 429.779 699.802 444.398 680.754 450.609 710.974 451.768 790.805 450.498 697.416 461.193 784.035 462.256 744.146 468.58 708.284 473.5"/><path class="cls-4" d="m317.5,380.5c-23.642-58.789-80.298-94.194-136-88-60.711,6.751-92.441,59.822-96,66"/><path class="cls-4" d="m317.628,458.552c-28.653-56.516-88.168-86.872-143.122-75.868-59.896,11.993-86.902,67.617-89.911,74.081"/><path class="cls-4" d="m328.495,537.14c-34.292-53.284-96.603-77.383-150.142-60.807-58.353,18.066-79.518,76.164-81.849,82.902"/><path class="cls-4" d="m364.584,616.244c-38.559-50.283-102.64-69.175-154.634-48.252-56.669,22.804-72.984,82.446-74.754,89.353"/><path class="cls-4" d="m620.306,371.362c23.642-58.789,80.298-94.194,136-88,60.711,6.751,92.441,59.822,96,66"/><path class="cls-4" d="m620.178,449.415c28.653-56.516,88.168-86.872,143.122-75.868,59.896,11.993,86.902,67.617,89.911,74.081"/><path class="cls-4" d="m609.312,528.002c34.292-53.284,96.603-77.383,150.142-60.807,58.353,18.066,79.518,76.164,81.849,82.902"/><path class="cls-4" d="m573.222,607.106c38.559-50.283,102.64-69.175,154.634-48.252,56.669,22.804,72.984,82.446,74.754,89.353"/><rect class="cls-2" x=".5" y=".5" width="941" height="941" rx="133.196" ry="133.196"/><polygon class="cls-2" points="708.284 473.5 765.746 478.798 691.46 481.494 687.537 485.287 777.077 495.535 787.369 501.984 773.103 506.212 697.248 502.288 761.51 515.605 769.351 522.22 754.575 525.1 755.551 530.585 699.024 523.691 716.021 532.015 692.712 530.765 698.226 536.551 676.565 534.627 752.637 562.473 715.818 555.828 708.052 558.019 738.156 574.09 714.166 570.166 666.12 555.341 751.252 596.609 691.709 575.428 660.078 565.12 676.933 577.809 708.048 598.813 656.83 576.286 716.477 614.733 664.384 589.684 721.359 629.735 710.874 629.293 731.484 649.28 683.138 622.524 712.086 649.19 676.941 629.536 682.129 639.461 636.05 608.484 702.719 669.278 705.419 678.828 692.369 674.616 707.543 696.088 670.726 668.647 661.369 666.381 689.646 702.693 635.763 653.174 676.405 704.951 660.567 695.157 606.805 639.048 600.087 636.86 634.178 686.793 612.898 666.445 638.534 709.287 592.297 651.897 597.789 667.07 618.108 706.301 624.845 726.57 632.017 749.022 620.947 741.161 592.937 701.425 619.389 761.877 594.7 725.611 597.3 742.68 569.682 695.107 581.642 733.422 583.69 751.572 555.03 693.457 563.313 727.708 550.674 706.435 538.82 684.759 561.612 770.908 560.291 786.195 525.021 679.403 527.807 705.77 536.741 762.373 531.23 761.969 512.907 696.502 514.798 730.033 514.511 757.543 499.66 689.752 498.972 715.823 494.949 719.225 492.693 743.828 491.104 790.161 480.586 698.226 476.641 700.611 472.447 693.572 468.5 729.392 463.13 774.819 458.388 756.796 456.198 702.301 446.171 786.245 439.808 794.724 438.297 754.506 434.329 745.532 431.079 733.651 424.133 747.291 426.482 706.122 412.909 753 407.831 752.407 396.768 777.156 410.469 700.722 407.776 694.725 382.209 767.391 378.099 762.202 389.75 710.065 363.793 770.27 358.846 767.445 359.142 751.394 358.73 738.466 351.734 741.7 350.721 731.359 354.243 712.305 361.348 687.601 368.748 664.284 338.714 711.17 312.226 747.832 330.789 705.587 355.388 656.701 343.208 668.515 341.753 663.25 322.881 683.243 328.808 667.254 315.081 678.451 315.282 670.748 279.836 707.575 304.895 669.265 272.158 700.058 322.657 635.878 291.087 664.046 314.978 632.6 312.701 629.289 244.903 689.246 264.886 663.061 228.805 688.814 271.076 644.552 226.126 676.075 247.496 651.594 232.858 656.563 217.847 661.163 242.378 636.553 288.162 598.647 250.695 619.013 280.93 593.982 267.643 597.527 267.449 592.74 221.94 613.906 204.859 617.479 255.736 584.759 239.351 588.184 278.082 564.552 207.987 592.477 214.288 584.153 178.79 593.516 193.584 581.67 192.211 576.552 264.025 545.634 190.937 565.878 163.291 569.052 253.747 536.579 254.597 532.211 202.337 541.432 195.615 537.977 154.134 541.838 248.083 517.396 205.69 520.923 160.414 523.377 240.399 506.349 156.009 512.698 253.247 496.71 151.104 501.852 216.606 491.537 182.235 488.833 156.67 484.614 170.038 478.82 192.048 473.5 156.045 467.935 246.493 465.539 174.886 457.779 242.909 457.317 185.955 448.225 250.434 449.988 222.417 442.556 172.572 430.979 218.234 432.916 227.745 430.024 244.914 428.971 216.169 418.587 241.177 419.741 256.958 419.46 236.414 409.803 189.393 391.544 234.762 400.294 237.388 396.565 265.27 401.796 262.784 396.771 198.886 367.403 250.672 383.279 172.741 344.721 207.695 354.374 179.628 335.244 272.734 375.545 187.532 326.475 204.283 329.187 274.114 362.851 269.284 355.336 199.057 306.999 262.266 340.983 257.258 332.363 255.499 325.615 234.646 304.84 217.13 285.275 248.361 302.474 224.211 276.595 240.69 283.085 241.782 277.019 263.626 289.458 284.416 302.107 233.612 246.828 254.75 259.736 322.243 321.907 279.223 270.191 261.428 242.975 259.844 232.713 261.951 226.376 272.785 230.655 321.402 284.093 333.262 292.772 299.968 239.793 341.477 290.465 307.794 233 306.245 221.059 304.579 208.19 320.833 224.636 357.573 278.601 349.615 255.721 354.824 256.124 361.669 260.011 348.122 221.893 336.834 185.245 368.043 242.682 381.801 264.138 359.528 196.548 393.589 272.629 364.727 179.339 397.071 258.909 391.268 226.859 402.197 247.748 388.409 181.487 407.611 235.011 404.085 200.878 400.152 159.088 407.485 166.54 411.62 157.931 424.024 199.001 429.244 200.448 442.07 263.686 445.382 259.109 440.032 154.788 449.049 201.55 454.74 217.056 458.847 203.285 462.915 159.879 468.5 181.671 472.609 244.149 477.549 220.494 485.242 160.541 483.63 262.846 494.308 184.915 494.593 231.154 507.49 162.72 502.857 234.847 503.783 256.189 522.422 174.475 512.221 253.998 523.63 220.17 526.503 228.154 526.962 244.587 552.321 167.905 558.457 167.104 544.67 230.286 569.792 169.183 547.95 248.317 574.448 189.488 560.755 239.035 590.25 179.647 587.188 200.889 585.798 216.691 563.514 274.841 569.161 272.34 604.568 213.435 596.384 239.305 592.684 255.397 624.95 209.899 631.158 210.265 639.598 207.36 649.5 202.72 601.975 281.214 618.982 264.81 637.56 247.689 660.956 225.815 643.448 256.423 623.697 287.785 646.721 267.835 648.529 273.09 647.004 281.782 684.948 249.205 668.863 273.15 628.765 318.874 668.928 286.907 641.725 317.927 627.505 335.765 657.43 315.634 683.835 299.98 644.82 336.582 728.805 278.6 654.488 339.435 669.698 333.843 646.34 354.742 683.092 335.617 690.621 336.312 742.664 310.79 662.005 363.369 753.53 317.818 668.989 368.675 703.475 355.894 683.134 370.842 673.567 379.884 673.359 384.358 746.106 358.503 754.242 361.067 741.006 371.86 744.023 376.302 716.85 390.841 744.72 387.016 685.204 409.849 693.369 411.787 747.874 402.206 783.256 399.166 677.191 428.044 711.459 425.145 736.705 425.11 751.48 427.66 772.879 429.779 699.802 444.398 680.754 450.609 710.974 451.768 790.805 450.498 697.416 461.193 784.035 462.256 744.146 468.58 708.284 473.5"/><polygon class="cls-2" points="708.284 473.5 765.746 478.798 691.46 481.494 687.537 485.287 777.077 495.535 787.369 501.984 773.103 506.212 697.248 502.288 761.51 515.605 769.351 522.22 754.575 525.1 755.551 530.585 699.024 523.691 716.021 532.015 692.712 530.765 698.226 536.551 676.565 534.627 752.637 562.473 715.818 555.828 708.052 558.019 738.156 574.09 714.166 570.166 666.12 555.341 751.252 596.609 691.709 575.428 660.078 565.12 676.933 577.809 708.048 598.813 656.83 576.286 716.477 614.733 664.384 589.684 721.359 629.735 710.874 629.293 731.484 649.28 683.138 622.524 712.086 649.19 676.941 629.536 682.129 639.461 636.05 608.484 702.719 669.278 705.419 678.828 692.369 674.616 707.543 696.088 670.726 668.647 661.369 666.381 689.646 702.693 635.763 653.174 676.405 704.951 660.567 695.157 606.805 639.048 600.087 636.86 634.178 686.793 612.898 666.445 638.534 709.287 592.297 651.897 597.789 667.07 618.108 706.301 624.845 726.57 632.017 749.022 620.947 741.161 592.937 701.425 619.389 761.877 594.7 725.611 597.3 742.68 569.682 695.107 581.642 733.422 583.69 751.572 555.03 693.457 563.313 727.708 550.674 706.435 538.82 684.759 561.612 770.908 560.291 786.195 525.021 679.403 527.807 705.77 536.741 762.373 531.23 761.969 512.907 696.502 514.798 730.033 514.511 757.543 499.66 689.752 498.972 715.823 494.949 719.225 492.693 743.828 491.104 790.161 480.586 698.226 476.641 700.611 472.447 693.572 468.5 729.392 463.13 774.819 458.388 756.796 456.198 702.301 446.171 786.245 439.808 794.724 438.297 754.506 434.329 745.532 431.079 733.651 424.133 747.291 426.482 706.122 412.909 753 407.831 752.407 396.768 777.156 410.469 700.722 407.776 694.725 382.209 767.391 378.099 762.202 389.75 710.065 363.793 770.27 358.846 767.445 359.142 751.394 358.73 738.466 351.734 741.7 350.721 731.359 354.243 712.305 361.348 687.601 368.748 664.284 338.714 711.17 312.226 747.832 330.789 705.587 355.388 656.701 343.208 668.515 341.753 663.25 322.881 683.243 328.808 667.254 315.081 678.451 315.282 670.748 279.836 707.575 304.895 669.265 272.158 700.058 322.657 635.878 291.087 664.046 314.978 632.6 312.701 629.289 244.903 689.246 264.886 663.061 228.805 688.814 271.076 644.552 226.126 676.075 247.496 651.594 232.858 656.563 217.847 661.163 242.378 636.553 288.162 598.647 250.695 619.013 280.93 593.982 267.643 597.527 267.449 592.74 221.94 613.906 204.859 617.479 255.736 584.759 239.351 588.184 278.082 564.552 207.987 592.477 214.288 584.153 178.79 593.516 193.584 581.67 192.211 576.552 264.025 545.634 190.937 565.878 163.291 569.052 253.747 536.579 254.597 532.211 202.337 541.432 195.615 537.977 154.134 541.838 248.083 517.396 205.69 520.923 160.414 523.377 240.399 506.349 156.009 512.698 253.247 496.71 151.104 501.852 216.606 491.537 182.235 488.833 156.67 484.614 170.038 478.82 192.048 473.5 156.045 467.935 246.493 465.539 174.886 457.779 242.909 457.317 185.955 448.225 250.434 449.988 222.417 442.556 172.572 430.979 218.234 432.916 227.745 430.024 244.914 428.971 216.169 418.587 241.177 419.741 256.958 419.46 236.414 409.803 189.393 391.544 234.762 400.294 237.388 396.565 265.27 401.796 262.784 396.771 198.886 367.403 250.672 383.279 172.741 344.721 207.695 354.374 179.628 335.244 272.734 375.545 187.532 326.475 204.283 329.187 274.114 362.851 269.284 355.336 199.057 306.999 262.266 340.983 257.258 332.363 255.499 325.615 234.646 304.84 217.13 285.275 248.361 302.474 224.211 276.595 240.69 283.085 241.782 277.019 263.626 289.458 284.416 302.107 233.612 246.828 254.75 259.736 322.243 321.907 279.223 270.191 261.428 242.975 259.844 232.713 261.951 226.376 272.785 230.655 321.402 284.093 333.262 292.772 299.968 239.793 341.477 290.465 307.794 233 306.245 221.059 304.579 208.19 320.833 224.636 357.573 278.601 349.615 255.721 354.824 256.124 361.669 260.011 348.122 221.893 336.834 185.245 368.043 242.682 381.801 264.138 359.528 196.548 393.589 272.629 364.727 179.339 397.071 258.909 391.268 226.859 402.197 247.748 388.409 181.487 407.611 235.011 404.085 200.878 400.152 159.088 407.485 166.54 411.62 157.931 424.024 199.001 429.244 200.448 442.07 263.686 445.382 259.109 440.032 154.788 449.049 201.55 454.74 217.056 458.847 203.285 462.915 159.879 468.5 181.671 472.609 244.149 477.549 220.494 485.242 160.541 483.63 262.846 494.308 184.915 494.593 231.154 507.49 162.72 502.857 234.847 503.783 256.189 522.422 174.475 512.221 253.998 523.63 220.17 526.503 228.154 526.962 244.587 552.321 167.905 558.457 167.104 544.67 230.286 569.792 169.183 547.95 248.317 574.448 189.488 560.755 239.035 590.25 179.647 587.188 200.889 585.798 216.691 563.514 274.841 569.161 272.34 604.568 213.435 596.384 239.305 592.684 255.397 624.95 209.899 631.158 210.265 639.598 207.36 649.5 202.72 601.975 281.214 618.982 264.81 637.56 247.689 660.956 225.815 643.448 256.423 623.697 287.785 646.721 267.835 648.529 273.09 647.004 281.782 684.948 249.205 668.863 273.15 628.765 318.874 668.928 286.907 641.725 317.927 627.505 335.765 657.43 315.634 683.835 299.98 644.82 336.582 728.805 278.6 654.488 339.435 669.698 333.843 646.34 354.742 683.092 335.617 690.621 336.312 742.664 310.79 662.005 363.369 753.53 317.818 668.989 368.675 703.475 355.894 683.134 370.842 673.567 379.884 673.359 384.358 746.106 358.503 754.242 361.067 741.006 371.86 744.023 376.302 716.85 390.841 744.72 387.016 685.204 409.849 693.369 411.787 747.874 402.206 783.256 399.166 677.191 428.044 711.459 425.145 736.705 425.11 751.48 427.66 772.879 429.779 699.802 444.398 680.754 450.609 710.974 451.768 790.805 450.498 697.416 461.193 784.035 462.256 744.146 468.58 708.284 473.5"/><path class="cls-2" d="m317.5,380.5c-23.642-58.789-80.298-94.194-136-88-60.711,6.751-92.441,59.822-96,66"/><path class="cls-2" d="m317.628,458.552c-28.653-56.516-88.168-86.872-143.122-75.868-59.896,11.993-86.902,67.617-89.911,74.081"/><path class="cls-2" d="m328.495,537.14c-34.292-53.284-96.603-77.383-150.142-60.807-58.353,18.066-79.518,76.164-81.849,82.902"/><path class="cls-2" d="m364.584,616.244c-38.559-50.283-102.64-69.175-154.634-48.252-56.669,22.804-72.984,82.446-74.754,89.353"/><path class="cls-2" d="m620.306,371.362c23.642-58.789,80.298-94.194,136-88,60.711,6.751,92.441,59.822,96,66"/><path class="cls-2" d="m620.178,449.415c28.653-56.516,88.168-86.872,143.122-75.868,59.896,11.993,86.902,67.617,89.911,74.081"/><path class="cls-2" d="m609.312,528.002c34.292-53.284,96.603-77.383,150.142-60.807,58.353,18.066,79.518,76.164,81.849,82.902"/><path class="cls-2" d="m573.222,607.106c38.559-50.283,102.64-69.175,154.634-48.252,56.669,22.804,72.984,82.446,74.754,89.353"/></g><g id="Layer_2"><circle class="cls-1" cx="357.25" cy="514.75" r="91.75"/><circle cx="367.195" cy="516.137" r="74.57"/><ellipse class="cls-1" cx="413.253" cy="490.259" rx="13.89" ry="32.167" transform="translate(-189.764 272.309) rotate(-30)"/><ellipse class="cls-1" cx="413.253" cy="490.259" rx="13.89" ry="32.167" transform="translate(-189.764 272.309) rotate(-30)"/><circle class="cls-1" cx="569.19" cy="516.137" r="91.158"/><circle cx="558.927" cy="516.137" r="74.088"/><ellipse class="cls-1" cx="604.687" cy="491.44" rx="13.801" ry="31.96" transform="translate(-164.708 368.184) rotate(-30)"/><ellipse class="cls-1" cx="604.687" cy="491.44" rx="13.801" ry="31.96" transform="translate(-164.708 368.184) rotate(-30)"/><ellipse class="cls-1" cx="426" cy="532.5" rx="7.5" ry="5" transform="translate(-235.183 365.561) rotate(-37.17)"/><ellipse class="cls-1" cx="618.043" cy="532.239" rx="7.5" ry="5" transform="translate(-196.012 481.537) rotate(-37.17)"/></g></svg>