<svg id="Layer_2" xmlns="http://www.w3.org/2000/svg" viewBox="55.3 197.12 1065.65 671.7"><defs><style>.cls-1{fill:#fff;}.cls-2,.cls-3{fill:none;stroke:#000;stroke-miterlimit:10;}.cls-3{stroke-linecap:round;stroke-width:27px;}</style></defs><polygon points="827.511 536.468 884.973 541.766 810.688 544.463 806.764 548.255 896.304 558.503 906.597 564.952 892.33 569.18 816.476 565.256 880.737 578.573 888.579 585.188 873.802 588.068 874.778 593.553 818.251 586.659 835.249 594.983 811.939 593.733 817.453 599.519 795.792 597.595 871.864 625.441 835.046 618.796 827.28 620.988 857.383 637.058 833.393 633.134 785.348 618.309 870.479 659.577 810.937 638.396 779.305 628.088 796.161 640.777 827.275 661.781 776.057 639.254 835.704 677.701 783.612 652.652 840.586 692.703 830.102 692.261 850.711 712.248 802.365 685.492 831.313 712.158 796.168 692.504 801.356 702.429 755.277 671.453 821.946 732.246 824.646 741.796 811.596 737.584 826.771 759.056 789.953 731.615 780.596 729.349 808.874 765.661 754.991 716.142 795.632 767.919 779.794 758.125 726.033 702.016 719.314 699.828 753.406 749.761 732.125 729.413 757.761 772.255 711.524 714.865 717.016 730.038 737.335 769.269 744.072 789.538 751.244 811.99 740.174 804.129 712.164 764.393 738.617 824.845 713.927 788.579 716.528 805.649 688.909 758.076 700.87 796.39 702.917 814.54 674.257 756.425 682.54 790.676 669.901 769.403 658.048 747.727 680.839 833.877 679.518 849.163 644.249 742.371 647.034 768.738 655.968 825.341 650.458 824.937 632.134 759.47 634.026 793.001 633.738 820.511 618.888 752.72 618.2 778.791 614.176 782.193 611.921 806.796 610.331 853.129 599.813 761.194 595.868 763.579 591.674 756.54 587.727 792.36 582.358 837.787 577.615 819.764 575.425 765.269 565.398 849.213 559.035 857.693 557.524 817.474 553.556 808.5 550.306 796.619 543.36 810.259 545.71 769.09 532.137 815.968 527.059 815.375 515.995 840.124 529.696 763.69 527.003 757.693 501.437 830.359 497.326 825.17 508.977 773.034 483.02 833.238 478.073 830.413 478.37 814.363 477.958 801.434 470.962 804.668 469.949 794.327 473.47 775.273 480.575 750.57 487.976 727.252 457.941 774.138 431.454 810.8 450.016 768.555 474.615 719.669 462.435 731.483 460.98 726.218 442.109 746.211 448.035 730.222 434.308 741.419 434.51 733.716 399.064 770.543 424.122 732.233 391.386 763.026 441.885 698.847 410.315 727.014 434.206 695.569 431.928 692.257 364.13 752.214 384.113 726.029 348.033 751.782 390.303 707.52 345.353 739.043 366.723 714.562 352.085 719.532 337.074 724.132 361.606 699.521 407.39 661.615 369.922 681.981 400.157 656.95 386.87 660.495 386.677 655.708 341.168 676.874 324.086 680.447 374.963 647.727 358.578 651.153 397.31 627.52 327.215 655.445 333.516 647.121 298.017 656.484 312.811 644.639 311.439 639.52 383.253 608.602 310.165 628.846 282.519 632.02 372.974 599.547 373.824 595.179 321.565 604.4 314.842 600.945 273.361 604.806 367.31 580.364 324.917 583.892 279.641 586.346 359.626 569.317 275.237 575.666 372.474 559.678 270.331 564.82 335.834 554.505 301.462 551.801 275.897 547.582 289.265 541.788 311.276 536.468 275.272 530.904 365.72 528.507 294.113 520.747 362.136 520.285 305.183 511.193 369.662 512.956 341.644 505.524 291.799 493.947 337.461 495.884 346.973 492.993 364.141 491.939 335.396 481.555 360.404 482.709 376.186 482.428 355.641 472.771 308.62 454.512 353.989 463.262 356.615 459.533 384.498 464.764 382.011 459.739 318.114 430.371 369.899 446.247 291.968 407.689 326.923 417.342 298.855 398.212 391.962 438.513 306.759 389.443 323.51 392.155 393.341 425.819 388.512 418.304 318.284 369.967 381.494 403.951 376.486 395.331 374.726 388.583 353.873 367.808 336.357 348.243 367.588 365.442 343.438 339.563 359.917 346.053 361.009 339.988 382.853 352.426 403.643 365.075 352.839 309.796 373.977 322.704 441.471 384.875 398.451 333.159 380.655 305.943 379.072 295.681 381.179 289.344 392.012 293.623 440.629 347.062 452.489 355.741 419.195 302.762 460.704 353.433 427.022 295.968 425.473 284.027 423.806 271.158 440.06 287.604 476.8 341.57 468.842 318.69 474.051 319.092 480.896 322.979 467.349 284.861 456.061 248.213 487.27 305.65 501.028 327.106 478.755 259.516 512.816 335.597 483.954 242.307 516.298 321.877 510.495 289.827 521.424 310.716 507.636 244.455 526.838 297.979 523.312 263.846 519.379 222.056 526.712 229.508 530.847 220.899 543.251 261.969 548.471 263.416 561.297 326.654 564.609 322.077 559.259 217.756 568.276 264.518 573.968 280.024 578.074 266.253 582.142 222.847 587.727 244.639 591.837 307.117 596.776 283.462 604.469 223.509 602.857 325.815 613.536 247.883 613.82 294.122 626.717 225.689 622.084 297.815 623.011 319.157 641.649 237.443 631.448 316.966 642.857 283.138 645.73 291.122 646.189 307.555 671.548 230.873 677.684 230.072 663.897 293.254 689.019 232.152 667.177 311.285 693.675 252.456 679.982 302.003 709.477 242.615 706.416 263.857 705.025 279.659 682.741 337.809 688.388 335.308 723.795 276.403 715.611 302.274 711.911 318.365 744.177 272.867 750.385 273.233 758.825 270.328 768.727 265.688 721.202 344.182 738.209 327.778 756.788 310.657 780.184 288.783 762.676 319.391 742.924 350.753 765.948 330.803 767.756 336.058 766.232 344.75 804.175 312.173 788.09 336.118 747.993 381.842 788.155 349.875 760.952 380.895 746.732 398.733 776.657 378.602 803.062 362.948 764.048 399.55 848.032 341.569 773.715 402.404 788.926 396.811 765.567 417.71 802.32 398.585 809.848 399.28 861.891 373.758 781.232 426.337 872.758 380.786 788.216 431.643 822.702 418.862 802.361 433.81 792.795 442.852 792.586 447.326 865.334 421.471 873.469 424.035 860.233 434.828 863.25 439.27 836.077 453.809 863.947 449.984 804.431 472.818 812.596 474.756 867.101 465.174 902.483 462.134 796.418 491.012 830.686 488.113 855.932 488.078 870.708 490.628 892.107 492.747 819.03 507.366 799.982 513.577 830.201 514.736 910.032 513.466 816.643 524.161 903.262 525.224 863.373 531.548 827.511 536.468"/><polygon class="cls-2" points="827.511 536.468 884.973 541.766 810.688 544.463 806.764 548.255 896.304 558.503 906.597 564.952 892.33 569.18 816.476 565.256 880.737 578.573 888.579 585.188 873.802 588.068 874.778 593.553 818.251 586.659 835.249 594.983 811.939 593.733 817.453 599.519 795.792 597.595 871.864 625.441 835.046 618.796 827.28 620.988 857.383 637.058 833.393 633.134 785.348 618.309 870.479 659.577 810.937 638.396 779.305 628.088 796.161 640.777 827.275 661.781 776.057 639.254 835.704 677.701 783.612 652.652 840.586 692.703 830.102 692.261 850.711 712.248 802.365 685.492 831.313 712.158 796.168 692.504 801.356 702.429 755.277 671.453 821.946 732.246 824.646 741.796 811.596 737.584 826.771 759.056 789.953 731.615 780.596 729.349 808.874 765.661 754.991 716.142 795.632 767.919 779.794 758.125 726.033 702.016 719.314 699.828 753.406 749.761 732.125 729.413 757.761 772.255 711.524 714.865 717.016 730.038 737.335 769.269 744.072 789.538 751.244 811.99 740.174 804.129 712.164 764.393 738.617 824.845 713.927 788.579 716.528 805.649 688.909 758.076 700.87 796.39 702.917 814.54 674.257 756.425 682.54 790.676 669.901 769.403 658.048 747.727 680.839 833.877 679.518 849.163 644.249 742.371 647.034 768.738 655.968 825.341 650.458 824.937 632.134 759.47 634.026 793.001 633.738 820.511 618.888 752.72 618.2 778.791 614.176 782.193 611.921 806.796 610.331 853.129 599.813 761.194 595.868 763.579 591.674 756.54 587.727 792.36 582.358 837.787 577.615 819.764 575.425 765.269 565.398 849.213 559.035 857.693 557.524 817.474 553.556 808.5 550.306 796.619 543.36 810.259 545.71 769.09 532.137 815.968 527.059 815.375 515.995 840.124 529.696 763.69 527.003 757.693 501.437 830.359 497.326 825.17 508.977 773.034 483.02 833.238 478.073 830.413 478.37 814.363 477.958 801.434 470.962 804.668 469.949 794.327 473.47 775.273 480.575 750.57 487.976 727.252 457.941 774.138 431.454 810.8 450.016 768.555 474.615 719.669 462.435 731.483 460.98 726.218 442.109 746.211 448.035 730.222 434.308 741.419 434.51 733.716 399.064 770.543 424.122 732.233 391.386 763.026 441.885 698.847 410.315 727.014 434.206 695.569 431.928 692.257 364.13 752.214 384.113 726.029 348.033 751.782 390.303 707.52 345.353 739.043 366.723 714.562 352.085 719.532 337.074 724.132 361.606 699.521 407.39 661.615 369.922 681.981 400.157 656.95 386.87 660.495 386.677 655.708 341.168 676.874 324.086 680.447 374.963 647.727 358.578 651.153 397.31 627.52 327.215 655.445 333.516 647.121 298.017 656.484 312.811 644.639 311.439 639.52 383.253 608.602 310.165 628.846 282.519 632.02 372.974 599.547 373.824 595.179 321.565 604.4 314.842 600.945 273.361 604.806 367.31 580.364 324.917 583.892 279.641 586.346 359.626 569.317 275.237 575.666 372.474 559.678 270.331 564.82 335.834 554.505 301.462 551.801 275.897 547.582 289.265 541.788 311.276 536.468 275.272 530.904 365.72 528.507 294.113 520.747 362.136 520.285 305.183 511.193 369.662 512.956 341.644 505.524 291.799 493.947 337.461 495.884 346.973 492.993 364.141 491.939 335.396 481.555 360.404 482.709 376.186 482.428 355.641 472.771 308.62 454.512 353.989 463.262 356.615 459.533 384.498 464.764 382.011 459.739 318.114 430.371 369.899 446.247 291.968 407.689 326.923 417.342 298.855 398.212 391.962 438.513 306.759 389.443 323.51 392.155 393.341 425.819 388.512 418.304 318.284 369.967 381.494 403.951 376.486 395.331 374.726 388.583 353.873 367.808 336.357 348.243 367.588 365.442 343.438 339.563 359.917 346.053 361.009 339.988 382.853 352.426 403.643 365.075 352.839 309.796 373.977 322.704 441.471 384.875 398.451 333.159 380.655 305.943 379.072 295.681 381.179 289.344 392.012 293.623 440.629 347.062 452.489 355.741 419.195 302.762 460.704 353.433 427.022 295.968 425.473 284.027 423.806 271.158 440.06 287.604 476.8 341.57 468.842 318.69 474.051 319.092 480.896 322.979 467.349 284.861 456.061 248.213 487.27 305.65 501.028 327.106 478.755 259.516 512.816 335.597 483.954 242.307 516.298 321.877 510.495 289.827 521.424 310.716 507.636 244.455 526.838 297.979 523.312 263.846 519.379 222.056 526.712 229.508 530.847 220.899 543.251 261.969 548.471 263.416 561.297 326.654 564.609 322.077 559.259 217.756 568.276 264.518 573.968 280.024 578.074 266.253 582.142 222.847 587.727 244.639 591.837 307.117 596.776 283.462 604.469 223.509 602.857 325.815 613.536 247.883 613.82 294.122 626.717 225.689 622.084 297.815 623.011 319.157 641.649 237.443 631.448 316.966 642.857 283.138 645.73 291.122 646.189 307.555 671.548 230.873 677.684 230.072 663.897 293.254 689.019 232.152 667.177 311.285 693.675 252.456 679.982 302.003 709.477 242.615 706.416 263.857 705.025 279.659 682.741 337.809 688.388 335.308 723.795 276.403 715.611 302.274 711.911 318.365 744.177 272.867 750.385 273.233 758.825 270.328 768.727 265.688 721.202 344.182 738.209 327.778 756.788 310.657 780.184 288.783 762.676 319.391 742.924 350.753 765.948 330.803 767.756 336.058 766.232 344.75 804.175 312.173 788.09 336.118 747.993 381.842 788.155 349.875 760.952 380.895 746.732 398.733 776.657 378.602 803.062 362.948 764.048 399.55 848.032 341.569 773.715 402.404 788.926 396.811 765.567 417.71 802.32 398.585 809.848 399.28 861.891 373.758 781.232 426.337 872.758 380.786 788.216 431.643 822.702 418.862 802.361 433.81 792.795 442.852 792.586 447.326 865.334 421.471 873.469 424.035 860.233 434.828 863.25 439.27 836.077 453.809 863.947 449.984 804.431 472.818 812.596 474.756 867.101 465.174 902.483 462.134 796.418 491.012 830.686 488.113 855.932 488.078 870.708 490.628 892.107 492.747 819.03 507.366 799.982 513.577 830.201 514.736 910.032 513.466 816.643 524.161 903.262 525.224 863.373 531.548 827.511 536.468"/><path class="cls-3" d="m436.727,443.468c-23.642-58.789-80.298-94.194-136-88-60.711,6.751-92.441,59.822-96,66"/><path class="cls-3" d="m436.855,521.521c-28.653-56.516-88.168-86.872-143.122-75.868-59.896,11.993-86.902,67.617-89.911,74.081"/><path class="cls-3" d="m447.722,600.108c-34.292-53.284-96.603-77.383-150.142-60.807-58.353,18.066-79.518,76.164-81.849,82.902"/><path class="cls-3" d="m483.811,679.213c-38.559-50.283-102.64-69.175-154.634-48.252-56.669,22.804-72.984,82.446-74.754,89.353"/><path class="cls-3" d="m739.534,434.33c23.642-58.789,80.298-94.194,136-88,60.711,6.751,92.441,59.822,96,66"/><path class="cls-3" d="m739.406,512.383c28.653-56.516,88.168-86.872,143.122-75.868,59.896,11.993,86.902,67.617,89.911,74.081"/><path class="cls-3" d="m728.539,590.971c34.292-53.284,96.603-77.383,150.142-60.807,58.353,18.066,79.518,76.164,81.849,82.902"/><path class="cls-3" d="m692.45,670.075c38.559-50.283,102.64-69.175,154.634-48.252,56.669,22.804,72.984,82.446,74.754,89.353"/><circle class="cls-1" cx="476.477" cy="577.718" r="91.75"/><circle cx="486.422" cy="579.105" r="74.57"/><ellipse class="cls-1" cx="532.48" cy="553.227" rx="13.89" ry="32.167" transform="translate(-205.275 340.359) rotate(-30)"/><ellipse class="cls-1" cx="532.48" cy="553.227" rx="13.89" ry="32.167" transform="translate(-205.275 340.359) rotate(-30)"/><circle class="cls-1" cx="688.417" cy="579.105" r="91.158"/><circle cx="678.154" cy="579.105" r="74.088"/><ellipse class="cls-1" cx="723.914" cy="554.409" rx="13.801" ry="31.96" transform="translate(-180.218 436.234) rotate(-30)"/><ellipse class="cls-1" cx="723.914" cy="554.409" rx="13.801" ry="31.96" transform="translate(-180.218 436.234) rotate(-30)"/><ellipse class="cls-1" cx="545.227" cy="595.468" rx="7.5" ry="5" transform="translate(-249.006 450.388) rotate(-37.17)"/><ellipse class="cls-1" cx="737.271" cy="595.207" rx="7.5" ry="5" transform="translate(-209.834 566.364) rotate(-37.17)"/></svg>