<?xml version="1.0" encoding="UTF-8"?>
<svg id="Layer_2" data-name="Layer 2" xmlns="http://www.w3.org/2000/svg" viewBox="0 0 860.02 724.06">
  <defs>
    <style>
      .cls-1, .cls-2 {
        stroke: #000;
        stroke-miterlimit: 10;
      }

      .cls-1, .cls-2, .cls-3, .cls-4 {
        fill: none;
      }

      .cls-2 {
        stroke-width: 27px;
      }

      .cls-2, .cls-3, .cls-4 {
        stroke-linecap: round;
      }

      .cls-5, .cls-6, .cls-7, .cls-8, .cls-9, .cls-10, .cls-11 {
        stroke-width: 0px;
      }

      .cls-3 {
        stroke-width: 7px;
      }

      .cls-3, .cls-4 {
        stroke: #18295d;
        stroke-linejoin: round;
      }

      .cls-6 {
        fill: #d0bbb4;
      }

      .cls-7 {
        fill: #fff;
      }

      .cls-8 {
        fill: #273f7e;
      }

      .cls-4 {
        stroke-width: 12px;
      }

      .cls-9 {
        fill: #b6a49e;
      }

      .cls-10 {
        fill: #18295d;
      }

      .cls-11 {
        fill: #ead2ca;
      }
    </style>
  </defs>
  <g id="Layer_4" data-name="Layer 4">
    <path class="cls-2" d="M549.08,380.59c28.65-56.52,88.17-86.87,143.12-75.87,59.9,11.99,86.9,67.62,89.91,74.08"/>
    <path class="cls-2" d="M538.22,459.17c34.29-53.28,96.6-77.38,150.14-60.81,58.35,18.07,79.52,76.16,81.85,82.9"/>
    <path class="cls-11" d="M652.14,670.71c47.04-73.42,152.94-186.03,198.09-214.44,17.04-17.85,10.71-56.38-10.2-72.79-20.9-16.41-71.13-20.42-85.7,1.7-48.98,110.46-190.52,219-190.52,219,0,0,23-19,53.63-9.19,39.88,12.78,41.98,64.66,34.7,75.72Z"/>
    <g>
      <polygon class="cls-5" points="678.86 404.67 673.72 409.6 716.07 416.02 701.77 420.96 713.89 427.26 664.26 428.56 692.09 436.33 618.92 432.56 665.29 443.19 651.05 445.8 680.91 455.81 641.25 453.21 678.03 465.71 679.84 471.41 701.19 482.19 705.81 489.26 678.21 487.12 622.99 475.32 655.04 490.43 703.87 512.8 610.76 484.25 593.38 481.77 669.54 517.41 650.94 515.04 638.18 514.63 679.42 539.64 624.38 518.28 626.47 524.49 662.76 549.61 672.68 561.48 584.33 515.52 588.32 522.56 579.29 521.51 601.28 540.87 645.38 576.88 602.32 552.42 620.36 571.59 572.7 540.81 635.83 596.85 609.72 582.12 607.59 586.81 624.07 608.3 601 594.24 578.01 578.95 602.99 610.26 552.2 565.11 588.87 610.33 557.99 583.47 538.55 567.61 596.19 642.51 570.38 619.33 529.99 575.42 590.13 662.07 547.2 612.43 551.9 627.2 522.87 592.53 544.43 633.46 540 635.53 521.21 613.4 519.27 618.74 534.8 656.27 501.19 603.16 491.81 593.37 514.23 648.86 505.11 640.54 510.14 663.66 478.37 600.19 504.88 677.81 485.78 641.63 489.7 666.29 496.62 702.77 478.33 663.12 485.89 706.08 463.53 645.65 473.3 702.12 468.66 706.32 464.75 714.46 442.03 628.77 443.76 661.51 433.16 624.91 433.45 655.2 433.04 688.53 429.04 699.14 418.11 635.53 416.22 667.54 409.02 620.47 407.78 695.4 402.84 709.57 397.41 645.2 393.24 637.34 389.64 620.99 382.81 676.9 376.13 702.44 373.68 669.71 364.98 706.59 357.59 722.08 355.97 692.96 346.48 719.27 342.55 708.89 352.63 629.49 341.06 663.61 333.33 675.82 330.08 668.4 323.69 673.34 324.17 654.05 325.29 634.93 315.11 651.9 305.56 665 296.64 674.79 278.27 707.39 276.07 697.52 306.45 613.67 265.69 692.99 256.85 698.35 295.62 608.08 258 671.11 274.2 630.31 242.61 676.41 232.37 682.7 254.58 635.87 256.79 623.48 241.15 638.5 268.84 589.9 247.5 612.57 240.23 614.63 207.9 648.57 221.23 623.27 197.56 643.76 230.26 597.57 214.66 608.11 233.69 580.51 235.05 572.93 238.11 563.96 227.67 568.43 189.9 597.85 237.62 548.16 174.17 598.1 168.09 596.32 214.24 552.24 196.65 560.6 198.41 553.6 214.02 536.86 142.9 581.4 154.7 566.85 175.59 547.2 206.43 522.58 146.27 553.69 178.1 529.52 157.51 535.66 196.79 509.56 172.05 517.45 112.8 540.86 172.7 507.27 164.11 506.21 125.66 517.24 162.36 497.14 187.75 482.86 146.68 493.12 98.87 504.03 146.54 483.22 133.48 482.16 116.55 481.71 189.31 457.83 140.44 465.4 120.04 465 78.25 468.1 152.56 448.87 93.97 453.8 91.06 448.67 86.14 443.72 97.54 436.87 148.43 426.98 152.42 422.22 116.74 419.71 145.9 413.67 103.56 409.91 149.15 404.67 157.99 400.39 182.65 396.96 109.4 389.25 110.94 384.2 123.5 380.16 168.85 380.04 168.13 375.82 102.22 362.25 185.63 370.28 99.15 350.89 184.59 362.27 170.3 355.22 186.89 354.87 148.53 341.13 139.07 333.79 108.52 319.85 140.48 324.21 114.27 310.43 119.41 306.59 172.13 320.64 118.77 295.02 194.52 320.64 147.94 296.07 166.76 299.34 141.59 282.26 157.31 284.48 142.92 271.53 210.5 302.66 137.7 256.74 134.62 248.7 135.38 242.76 184.85 268.08 179.08 258.79 163.29 242.1 174.1 243.63 175.36 238.43 211.84 260.54 144.19 200.56 209.69 247.8 231.4 260.85 239.01 262.41 232.6 251.24 223.51 236.87 239.29 246.55 197.74 197.74 241.94 237.66 221.98 209.36 247.78 231.95 261.64 242.16 212.04 174.66 201.39 152.37 246.19 202.63 214.96 151.7 237.37 174.17 255.41 192.12 257.1 186.32 232.79 138.23 258.26 170.13 253.8 152.5 242.37 120.81 279.81 179.81 256.83 123.88 289.6 179.3 263.92 112.44 280.65 136.45 285 133.31 318.45 203.95 318.37 192.74 302.84 136.61 307.18 133.57 306 112.71 331.56 180.49 320.73 125.15 337.17 168.76 324.03 93.98 343.31 156.1 338.69 109.33 350.4 144.2 355.76 147.79 361.62 155.96 368.68 176.35 373.8 185.73 376.66 173.34 379.9 160.37 386.06 193.91 386.22 90.83 393 158.22 397.41 118.37 402.06 144.39 408.36 97.5 414.48 85.47 417.52 123.28 422.87 119.95 426.33 135.74 426.15 176.27 443.65 82.64 448.06 91.82 440.47 166.21 445.91 160.97 447.91 172.72 465.19 117.77 458.2 166.59 483.11 92.2 473.84 144.39 468.7 177.05 485.55 139.86 472.17 192.76 490.82 154.25 486.79 177.49 518.92 111.39 490.64 190.44 510.34 157.4 529.68 128.27 530.44 138.97 536.13 139.55 524.35 172.19 519.48 190.26 517.4 202.38 560.64 140.5 525.74 204.93 578.35 133.97 523.96 222.34 525.46 227.03 558.86 189.01 538.22 223.36 598.07 155.72 602.39 159.45 604.86 165.3 606.24 172.22 550.31 240.44 602.47 192.16 610.03 192.06 616.58 193.19 584.07 230.9 609.74 213.94 643.99 190.98 637.48 204.02 574.53 261.98 573.76 267.73 658.79 208.96 616.12 246.97 605.17 260.45 591 275.37 612.29 266.6 647.35 250.26 615 275.6 584.5 298.2 612.2 287.42 614.37 291.21 601.56 302.52 611.27 302.38 683.79 273.86 605.32 314.2 685.39 285.37 696.65 286.92 616.22 323.07 700.05 297.9 668.72 314.37 695.27 311.42 677.77 322.36 633.58 339.86 695.66 328.57 685.85 336.53 682.4 342.69 673.6 349.74 671.81 355.17 648.39 363.98 614.67 373.37 679.47 369.26 707.76 371.35 641.42 382.8 661.14 385.8 622.02 392.59 721.7 393.12 664.75 399.9 678.86 404.67"/>
      <polygon class="cls-1" points="678.86 404.67 673.72 409.6 716.07 416.02 701.77 420.96 713.89 427.26 664.26 428.56 692.09 436.33 618.92 432.56 665.29 443.19 651.05 445.8 680.91 455.81 641.25 453.21 678.03 465.71 679.84 471.41 701.19 482.19 705.81 489.26 678.21 487.12 622.99 475.32 655.04 490.43 703.87 512.8 610.76 484.25 593.38 481.77 669.54 517.41 650.94 515.04 638.18 514.63 679.42 539.64 624.38 518.28 626.47 524.49 662.76 549.61 672.68 561.48 584.33 515.52 588.32 522.56 579.29 521.51 601.28 540.87 645.38 576.88 602.32 552.42 620.36 571.59 572.7 540.81 635.83 596.85 609.72 582.12 607.59 586.81 624.07 608.3 601 594.24 578.01 578.95 602.99 610.26 552.2 565.11 588.87 610.33 557.99 583.47 538.55 567.61 596.19 642.51 570.38 619.33 529.99 575.42 590.13 662.07 547.2 612.43 551.9 627.2 522.87 592.53 544.43 633.46 540 635.53 521.21 613.4 519.27 618.74 534.8 656.27 501.19 603.16 491.81 593.37 514.23 648.86 505.11 640.54 510.14 663.66 478.37 600.19 504.88 677.81 485.78 641.63 489.7 666.29 496.62 702.77 478.33 663.12 485.89 706.08 463.53 645.65 473.3 702.12 468.66 706.32 464.75 714.46 442.03 628.77 443.76 661.51 433.16 624.91 433.45 655.2 433.04 688.53 429.04 699.14 418.11 635.53 416.22 667.54 409.02 620.47 407.78 695.4 402.84 709.57 397.41 645.2 393.24 637.34 389.64 620.99 382.81 676.9 376.13 702.44 373.68 669.71 364.98 706.59 357.59 722.08 355.97 692.96 346.48 719.27 342.55 708.89 352.63 629.49 341.06 663.61 333.33 675.82 330.08 668.4 323.69 673.34 324.17 654.05 325.29 634.93 315.11 651.9 305.56 665 296.64 674.79 278.27 707.39 276.07 697.52 306.45 613.67 265.69 692.99 256.85 698.35 295.62 608.08 258 671.11 274.2 630.31 242.61 676.41 232.37 682.7 254.58 635.87 256.79 623.48 241.15 638.5 268.84 589.9 247.5 612.57 240.23 614.63 207.9 648.57 221.23 623.27 197.56 643.76 230.26 597.57 214.66 608.11 233.69 580.51 235.05 572.93 238.11 563.96 227.67 568.43 189.9 597.85 237.62 548.16 174.17 598.1 168.09 596.32 214.24 552.24 196.65 560.6 198.41 553.6 214.02 536.86 142.9 581.4 154.7 566.85 175.59 547.2 206.43 522.58 146.27 553.69 178.1 529.52 157.51 535.66 196.79 509.56 172.05 517.45 112.8 540.86 172.7 507.27 164.11 506.21 125.66 517.24 162.36 497.14 187.75 482.86 146.68 493.12 98.87 504.03 146.54 483.22 133.48 482.16 116.55 481.71 189.31 457.83 140.44 465.4 120.04 465 78.25 468.1 152.56 448.87 93.97 453.8 91.06 448.67 86.14 443.72 97.54 436.87 148.43 426.98 152.42 422.22 116.74 419.71 145.9 413.67 103.56 409.91 149.15 404.67 157.99 400.39 182.65 396.96 109.4 389.25 110.94 384.2 123.5 380.16 168.85 380.04 168.13 375.82 102.22 362.25 185.63 370.28 99.15 350.89 184.59 362.27 170.3 355.22 186.89 354.87 148.53 341.13 139.07 333.79 108.52 319.85 140.48 324.21 114.27 310.43 119.41 306.59 172.13 320.64 118.77 295.02 194.52 320.64 147.94 296.07 166.76 299.34 141.59 282.26 157.31 284.48 142.92 271.53 210.5 302.66 137.7 256.74 134.62 248.7 135.38 242.76 184.85 268.08 179.08 258.79 163.29 242.1 174.1 243.63 175.36 238.43 211.84 260.54 144.19 200.56 209.69 247.8 231.4 260.85 239.01 262.41 232.6 251.24 223.51 236.87 239.29 246.55 197.74 197.74 241.94 237.66 221.98 209.36 247.78 231.95 261.64 242.16 212.04 174.66 201.39 152.37 246.19 202.63 214.96 151.7 237.37 174.17 255.41 192.12 257.1 186.32 232.79 138.23 258.26 170.13 253.8 152.5 242.37 120.81 279.81 179.81 256.83 123.88 289.6 179.3 263.92 112.44 280.65 136.45 285 133.31 318.45 203.95 318.37 192.74 302.84 136.61 307.18 133.57 306 112.71 331.56 180.49 320.73 125.15 337.17 168.76 324.03 93.98 343.31 156.1 338.69 109.33 350.4 144.2 355.76 147.79 361.62 155.96 368.68 176.35 373.8 185.73 376.66 173.34 379.9 160.37 386.06 193.91 386.22 90.83 393 158.22 397.41 118.37 402.06 144.39 408.36 97.5 414.48 85.47 417.52 123.28 422.87 119.95 426.33 135.74 426.15 176.27 443.65 82.64 448.06 91.82 440.47 166.21 445.91 160.97 447.91 172.72 465.19 117.77 458.2 166.59 483.11 92.2 473.84 144.39 468.7 177.05 485.55 139.86 472.17 192.76 490.82 154.25 486.79 177.49 518.92 111.39 490.64 190.44 510.34 157.4 529.68 128.27 530.44 138.97 536.13 139.55 524.35 172.19 519.48 190.26 517.4 202.38 560.64 140.5 525.74 204.93 578.35 133.97 523.96 222.34 525.46 227.03 558.86 189.01 538.22 223.36 598.07 155.72 602.39 159.45 604.86 165.3 606.24 172.22 550.31 240.44 602.47 192.16 610.03 192.06 616.58 193.19 584.07 230.9 609.74 213.94 643.99 190.98 637.48 204.02 574.53 261.98 573.76 267.73 658.79 208.96 616.12 246.97 605.17 260.45 591 275.37 612.29 266.6 647.35 250.26 615 275.6 584.5 298.2 612.2 287.42 614.37 291.21 601.56 302.52 611.27 302.38 683.79 273.86 605.32 314.2 685.39 285.37 696.65 286.92 616.22 323.07 700.05 297.9 668.72 314.37 695.27 311.42 677.77 322.36 633.58 339.86 695.66 328.57 685.85 336.53 682.4 342.69 673.6 349.74 671.81 355.17 648.39 363.98 614.67 373.37 679.47 369.26 707.76 371.35 641.42 382.8 661.14 385.8 622.02 392.59 721.7 393.12 664.75 399.9 678.86 404.67"/>
    </g>
    <path class="cls-8" d="M664.81,508.17s22.48-22.17,57.76,1.45c20.24,13.55,24.63,42.11,14.24,53.55l25.91-25.83c.73-.78,1.2-1.76,1.35-2.82,1.16-8.03,14.74-33.35-16.27-57.19-20.88-16.04-47.2-5.5-51.2-3.92-.36.14-.68.36-.93.65l-30.85,34.1Z"/>
    <path class="cls-9" d="M575.08,629.2s-28.41,32.31,11.1,53.97c39.51,21.66,65.95-12.46,65.95-12.46l31.57-47.92-96.2-6.05-12.43,12.46Z"/>
    <path class="cls-6" d="M617.47,657.12l44.79-37.9-30.38-46.99-56.8,56.96s21.94-17.26,39.16-3.28c15.17,12.32,3.23,31.2,3.23,31.2Z"/>
    <path class="cls-2" d="M246.41,311.67c-23.64-58.79-80.3-94.19-136-88-60.71,6.75-92.44,59.82-96,66"/>
    <path class="cls-2" d="M246.53,389.72c-28.65-56.52-88.17-86.87-143.12-75.87-59.9,11.99-86.9,67.62-89.91,74.08"/>
    <path class="cls-2" d="M257.4,468.31c-34.29-53.28-96.6-77.38-150.14-60.81-58.35,18.07-79.52,76.16-81.85,82.9"/>
    <path class="cls-2" d="M293.49,547.42c-38.56-50.28-102.64-69.18-154.63-48.25-56.67,22.8-72.98,82.45-74.75,89.35"/>
    <path class="cls-2" d="M549.21,302.53c23.64-58.79,80.3-94.19,136-88,60.71,6.75,92.44,59.82,96,66"/>
    <path class="cls-2" d="M502.13,538.28c38.56-50.28,110.19-65.53,162.18-44.61,56.67,22.8,58.23,72.09,60,79"/>
    <path class="cls-10" d="M545.66,157.66l-12.82,166.21c1.09,12.76-44.18-.23-56.47,3.36-47.32,13.79-6.13,37.75-143.41,23.26-12.51-1.32-82.2,17.61-83.71,5.12l-57.05-168.17"/>
    <line class="cls-3" x1="99.55" y1="360.68" x2="120" y2="352.81"/>
    <path class="cls-5" d="M561.15,366.2c.09.92,25.82-.64,25.88.28s-6.09,2.14-6.05,3.06,14.68,1.55,14.69,2.47-28.67,1.63-28.69,2.55,48.89,3.59,48.85,4.51-25.84.77-25.91,1.69-18.14.09-18.23,1,40.96,6.94,40.84,7.86-32.88-2.68-33.03-1.77-2.5,1.25-2.68,2.16,9.13,3.69,8.93,4.6-17.44-2.38-17.66-1.48,5.73,3.08,5.48,3.97,4.39,3.03,4.12,3.91,31.51,12.43,31.22,13.31-3.32,1.57-3.64,2.44-4.64.9-4.98,1.76-4.39.78-4.75,1.63-52.51-21.21-52.89-20.37,65.93,32.82,65.53,33.66-48.76-21.89-49.18-21.06,40.75,23.69,40.31,24.5-35.29-17.22-35.75-16.42,27.64,18.51,27.16,19.3-22.43-11.34-22.92-10.55-4.99-1.11-5.5-.33-11.96-6.17-12.49-5.41,15.94,13.3,15.4,14.05-16.15-9.81-16.7-9.07-6.86-3.47-7.43-2.74,37.46,32.32,36.87,33.04-11.42-6.66-12.02-5.95,6.72,8.65,6.1,9.35-35.41-29.28-36.04-28.6,1.16,3.05.52,3.73,30.38,31.85,29.73,32.51-20.74-17.84-21.4-17.19,3.23,5.97,2.56,6.6,3.63,6.72,2.95,7.35,13.63,18.29,12.94,18.9-35.17-37.09-35.87-36.49,23.83,30.9,23.12,31.49,7.01,12.07,6.29,12.66-27.33-30.95-28.06-30.38-6.83-6.1-7.57-5.54,3.77,7.8,3.02,8.35,6.17,11.59,5.42,12.13-8.2-8.42-8.96-7.89,19.38,31.87,18.61,32.39-38.29-54.35-39.06-53.84,11.25,20.24,10.46,20.74,10.33,19.96,9.54,20.44-13.4-18.55-14.19-18.07,7.97,17.09,7.17,17.55-4.97-4.9-5.77-4.45,6.99,16.64,6.18,17.09-16.9-27.5-17.72-27.07-2.82-1.87-3.65-1.45,12.03,27.82,11.2,28.23,2.32,9.4,1.48,9.8-13.07-22.97-13.91-22.58,5.17,15.77,4.33,16.15-3.88-3.9-4.73-3.53-15.61-31.87-16.46-31.5-4.2-6.26-5.05-5.91,16.14,44.53,15.28,44.87.02,5.58-.84,5.91-7.66-14.84-8.53-14.52,3.06,14.03,2.19,14.34-6.62-13.06-7.5-12.76-4.99-9.18-5.87-8.89-.81,3.12-1.69,3.41,10.5,40.11,9.62,40.39-4.61-7.78-5.49-7.51-8.32-21.57-9.21-21.32-8.35-23.62-9.25-23.38,11.7,51.27,10.81,51.5-2.6-1.5-3.5-1.27-14.89-53.42-15.79-53.21,12.08,60.37,11.18,60.58-16.37-65.64-17.28-65.44,6.55,39.5,5.65,39.69-.19,9.04-1.1,9.21-1.98.29-2.89.45-1.43,3.45-2.34,3.61-8.59-40.56-9.5-40.42-1.03,3.88-1.95,4.02,5.28,49.52,4.36,49.65-2.42-1.97-3.34-1.86-4.17-17.03-5.09-16.92-3.55-14.6-4.47-14.5,2.02,38.74,1.09,38.83-4.71-28.46-5.63-28.38-2.65-9.58-3.57-9.51.26,30.36-.66,30.42-3.96-32.1-4.88-32.05-1.17,12.91-2.09,12.96-1.75,4.35-2.67,4.38-2.92-36.55-3.84-36.53-.69,54.68-1.61,54.7-2.19-7.69-3.11-7.68-1.83-48.34-2.75-48.34-1.8,15.69-2.72,15.67-1.24-18.56-2.16-18.58-3.28,47.96-4.2,47.92-.13-40.19-1.05-40.23-3.74,36.6-4.66,36.55-.16-26.65-1.08-26.72-4.55,35.46-5.47,35.38.28-26.28-.63-26.36-1.58-2.37-2.5-2.47-2.57,6.81-3.49,6.71-1.96.65-2.88.54,2.7-33.69,1.78-33.82-2.56,7.1-3.47,6.96-1.96,2.3-2.87,2.16-9.33,44.96-10.24,44.81,1.91-22.24,1-22.4-5.2,16.83-6.1,16.66-4.23,10.14-5.13,9.95-1.2-4.85-2.1-5.05,3.08-22.76,2.18-22.97-2.49,2.23-3.39,2.01-3.94,7.58-4.84,7.35-7.54,20.01-8.42,19.77,1.94-15.15,1.05-15.41,8.81-36.83,7.93-37.1-15.24,43.26-16.12,42.99.89-9.85.01-10.13-1.53-1.99-2.4-2.29-1.43-2.18-2.29-2.49,3.12-14.32,2.26-14.64,5.42-19.16,4.56-19.49-5.83,10.21-6.68,9.86,8.32-24.39,7.47-24.74-11.21,22.25-12.05,21.88-12.62,23.65-13.46,23.27,12.81-32.19,11.97-32.58,6.51-17,5.69-17.41-18.2,32.89-19.02,32.47,14.99-32.53,14.18-32.96-2.46,1.69-3.27,1.24,2.15-6.58,1.34-7.04-30.59,49.45-31.38,48.98,4.72-11.96,3.94-12.44,21.53-37.69,20.75-38.18-2.77,1.91-3.54,1.4-10.87,13.59-11.63,13.07-3.8,2.59-4.55,2.05-17.6,21.08-18.34,20.53-9.76,9.2-10.5,8.64-1.83-1.59-2.55-2.17.97-4.99.26-5.58.49-4.19-.21-4.79,23.92-30.22,23.23-30.83-24.8,24.41-25.48,23.79,17.01-20.77,16.35-21.41,8.18-10.46,7.53-11.12-2.56.5-3.2-.17-10.38,7.48-11,6.79-18.64,13.91-19.24,13.21,22.9-21.88,22.31-22.59-27.13,19.52-27.7,18.79,41.24-33.91,40.69-34.65-3.86,1.51-4.4.77-30.66,19.5-31.18,18.74-8.5,3.1-8.99,2.33,30.3-21.02,29.82-21.8,9.48-6.9,9.02-7.7-17.2,8.19-17.64,7.38-6.31,1.57-6.72.74-14.61,5.11-15,4.27,30.7-15.67,30.33-16.52,8.16-4.47,7.81-5.33-5.78,1.3-6.1.43-58.54,18.99-58.84,18.11,31.51-12.61,31.24-13.49-19.69,3.69-19.94,2.8-8.92-.17-9.14-1.07,51.83-13.9,51.63-14.8-31.42,4.86-31.59,3.95,25.71-6,25.57-6.91,2.32-1.47,2.2-2.39-31.07,1.96-31.16,1.04,14.78-3.03,14.72-3.95-47.11.34-47.15-.58,5.79-2.99,5.78-3.92,1.03-2.74,1.04-3.66-6.26-3.02-6.22-3.94,27.12-.86,27.19-1.78-13.04-3.5-12.94-4.42,25.81.93,25.93.01-10.96-3.57-10.81-4.48,7.16-.75,7.33-1.66-18.73-6.06-18.53-6.96,50.39,10.06,50.61,9.17-40.99-12.47-40.74-13.36,36.39,8.9,36.66,8.02,10.52,2.28,10.82,1.4-65.1-24.75-64.78-25.62,27.1,7.77,27.43,6.91,26.95,9.25,27.31,8.39-27.56-13.89-27.18-14.73,26.46,10.48,26.86,9.65-39.17-21.56-38.75-22.38,13.7,4.67,14.14,3.85,11.22,4.02,11.68,3.21-3.7-4.33-3.23-5.12,30.93,17.22,31.42,16.44-3.27-3.56-2.76-4.33-52.48-37.82-51.95-38.58,14.53,7.26,15.07,6.51-5.31-6.84-4.75-7.58,21.24,13.57,21.82,12.84-2.91-4.87-2.32-5.59,33.11,25.4,33.71,24.7-40.41-37.24-39.8-37.94,19.96,15.15,20.58,14.47-24.52-25.7-23.88-26.37,2.61-.85,3.26-1.51,35.93,33.02,36.59,32.37,10.59,8.83,11.26,8.19-24.47-28.53-23.79-29.15-16.56-21.51-15.87-22.13,28.82,29.69,29.52,29.08,6.52,5.08,7.23,4.49-6.32-10.36-5.6-10.94,5.97,4.68,6.7,4.11-15.93-23.69-15.19-24.25,34.91,43.69,35.66,43.14-22.4-33.48-21.65-34.02-1.25-5.09-.49-5.62,18.69,24.22,19.46,23.7-21.45-35.56-20.68-36.07-.56-4.8.22-5.29,22.02,31.64,22.81,31.15-2.99-8.18-2.2-8.66-11.41-23.16-10.61-23.63,3.51,1.98,4.32,1.53-7.43-17.87-6.62-18.32,19.31,31.6,20.13,31.17,12.48,20.35,13.31,19.92-5.02-13.48-4.19-13.89-4.29-12.8-3.46-13.2,4.59,5.42,5.42,5.03-10.48-27.45-9.63-27.83,22.37,45.73,23.21,45.35.27-3.27,1.12-3.63-7.25-21.76-6.39-22.11,3.85,4.75,4.71,4.41,11.24,24.4,12.1,24.06-14.9-44.43-14.04-44.75,12.53,29.15,13.4,28.84,6.47,13.76,7.34,13.46-20.64-66.77-19.76-67.06,15.35,40.65,16.24,40.37,9.75,25.71,10.63,25.44-5.83-24.85-4.94-25.11-3.4-18.37-2.51-18.62,3.23,4.46,4.12,4.22,2.69,2.83,3.58,2.59,7.99,24.44,8.89,24.21-1.45-12.92-.55-13.13-3.48-23.13-2.58-23.34,1.66-1.62,2.56-1.82,4.83,13.82,5.74,13.63,5.67,19.75,6.58,19.57-3.98-30.78-3.07-30.95,2.9,5.5,3.82,5.34,3.61,10.66,4.52,10.52-4.19-39.64-3.28-39.78,2.56,2.68,3.48,2.55,6,29.7,6.92,29.58,2.95,9.36,3.87,9.25-1.57-30.33-.64-30.43,3.6,15.77,4.52,15.68,2.02,1.64,2.94,1.56,3.8,24.93,4.72,24.86,1.87,4,2.79,3.94,1.56.03,2.48-.02-.17-36.39.75-36.43,1.66-7.24,2.58-7.28,3.33,50.4,4.26,50.38.32-71.43,1.25-71.44,2.53,55.24,3.45,55.23,1.6,7.2,2.53,7.2,2.46-58.02,3.38-58,1.95,8.68,2.87,8.71.71,37.54,1.63,37.57,1.41,5.91,2.33,5.95,1.62.03,2.54.08,2.51-12.82,3.43-12.76,2.63-10.77,3.55-10.7-1.58,38.07-.66,38.15,2.76-12.67,3.68-12.58.79,7.2,1.71,7.3,6.5-39.85,7.42-39.74,2.38-2.87,3.29-2.74-3.58,37.97-2.67,38.1.03,9.82.94,9.96,4.08-15.16,4.99-15,9.77-44.24,10.68-44.08,3.01-4.12,3.92-3.94-3.13,26.01-2.23,26.2,6.52-20.71,7.42-20.51-10.83,56.16-9.94,56.37,4.35-11.49,5.24-11.27-1.85,13.68-.96,13.91,18.12-61.14,19.01-60.9-13.85,56.78-12.96,57.03,12.66-37.07,13.55-36.81,2.22-.37,3.1-.09-7.55,29.61-6.67,29.89-4.02,16.82-3.15,17.11,21.3-55.59,22.17-55.28-1.05,9.13-.19,9.45-17.31,50.46-16.45,50.8,10.49-22.44,11.35-22.09-6.89,20.79-6.04,21.15,20.77-44.21,21.61-43.84,8.94-14.73,9.78-14.35-23.58,55.54-22.75,55.93,10.44-18.1,11.27-17.69,10.52-16.89,11.34-16.47,7.82-10.46,8.63-10.03-18.72,38.91-17.91,39.35,12.89-19.54,13.69-19.08.89,2.3,1.69,2.77,8.31-9.94,9.1-9.46-7.25,15.41-6.48,15.91-6.54,13.3-5.77,13.81,11.06-13.37,11.82-12.85-18.68,29.62-17.93,30.15,33.06-42.78,33.8-42.24-24.62,35.89-23.88,36.45,32.98-39.2,33.7-38.63-25.27,34.38-24.56,34.97,15.2-15.26,15.9-14.67-23.08,28.85-22.4,29.46,18.78-18.33,19.46-17.71,23.69-21.87,24.35-21.23-16.14,19.43-15.49,20.09,1.93.84,2.56,1.51-18.5,19.44-17.89,20.12,20.83-16.27,21.43-15.57,25.18-18.34,25.77-17.63-18.66,18.15-18.08,18.87,14.55-8.35,15.1-7.62-4.06,5.95-3.52,6.7,9.99-3.98,10.51-3.21-10.91,10.1-10.41,10.88-31.64,21.86-31.16,22.64,24.06-12.35,24.52-11.55-25.62,16.02-25.18,16.83,20.91-9.28,21.33-8.46-18.41,10.62-18.02,11.45,43.9-17.98,44.27-17.13.69,2.39,1.03,3.24-17.56,9.2-17.24,10.06-33.01,13.3-32.71,14.18,22.89-6.15,23.16-5.27,29.96-6.72,30.21-5.83-37.31,11.79-37.09,12.69,53.14-10.2,53.33-9.3-10.66,4.94-10.49,5.85-58.52,11.81-58.38,12.72,64.42-7.4,64.54-6.48-53.59,8-53.5,8.92Z"/>
    <path class="cls-8" d="M308.42,6l-228.85,122.06c-15.52,8.28-12.38,31.39,4.78,35.23l298.07,66.69c13.96,3.12,28.58,1.07,41.14-5.77l225.32-122.81c15.43-8.41,12.11-31.46-5.06-35.18L343.23,1.16c-11.81-2.56-24.15-.84-34.81,4.85Z"/>
    <path class="cls-4" d="M364,115.77l-243.11,52.12c-7.72,1.65-14.59,6.06-19.2,12.47-13.38,18.62-29.81,66.12,7.99,176.5l-5.22,61.08,8.64-56.43-1.59,13.82,5.36,51.39-3.77-65.21,13.48,55.69-14.41-58.59,20.7,44.42-15.52-24.38"/>
    <g>
      <circle class="cls-7" cx="286.16" cy="445.92" r="91.75"/>
      <circle class="cls-5" cx="267.1" cy="447.31" r="74.57"/>
      <g>
        <ellipse class="cls-7" cx="313.16" cy="421.43" rx="13.89" ry="32.17" transform="translate(-168.76 213.04) rotate(-30)"/>
        <ellipse class="cls-7" cx="313.16" cy="421.43" rx="13.89" ry="32.17" transform="translate(-168.76 213.04) rotate(-30)"/>
      </g>
    </g>
    <ellipse class="cls-7" cx="325.91" cy="463.67" rx="7.5" ry="5" transform="translate(-213.93 291.1) rotate(-37.17)"/>
    <path class="cls-11" d="M652.14,670.71c12.76-19.92,29.86-42.73,48.91-65.96-10.41-.46-6.19-10.4-12.67-24.49-7.89-17.15.68-41.46-6.56-55.09-2.74-5.15-14.29-13.03-16-15-53.15,53.16-102,94-102,94,0,0,25-17,53.63-9.19,40.4,11.03,41.98,64.66,34.7,75.72Z"/>
    <g>
      <circle class="cls-7" cx="498.1" cy="447.31" r="91.16"/>
      <circle class="cls-5" cx="478.83" cy="447.31" r="74.09"/>
      <g>
        <ellipse class="cls-7" cx="524.59" cy="422.61" rx="13.8" ry="31.96" transform="translate(-141.02 318.92) rotate(-30)"/>
        <ellipse class="cls-7" cx="524.59" cy="422.61" rx="13.8" ry="31.96" transform="translate(-141.02 318.92) rotate(-30)"/>
      </g>
    </g>
    <ellipse class="cls-7" cx="537.95" cy="463.41" rx="7.5" ry="5" transform="translate(-170.7 419.16) rotate(-37.17)"/>
  </g>
</svg>