<?xml version="1.0" encoding="UTF-8"?>
<svg id="Layer_1" data-name="Layer 1" xmlns="http://www.w3.org/2000/svg" viewBox="0 0 841.89 595.28">
  <defs>
    <style>
      .cls-1, .cls-2 {
        fill: #fff;
      }

      .cls-2 {
        fill-rule: evenodd;
      }

      .cls-3 {
        stroke-linecap: round;
        stroke-width: 10.6px;
      }

      .cls-3, .cls-4 {
        fill: none;
        stroke: #010101;
        stroke-miterlimit: 10;
      }

      .cls-5 {
        fill: #804d79;
      }

      .cls-4 {
        stroke-width: .39px;
      }

      .cls-6 {
        fill: #010101;
      }
    </style>
  </defs>
  <g>
    <rect class="cls-5" x="319.75" y="78.58" width="206.91" height="206.91" rx="15.26" ry="15.26"/>
    <path class="cls-2" d="m385.51,199.85c-.84,1.1-1.22,2.34-1.22,3.55,0,3.03,2.38,5.88,5.83,5.88h66.17c3.46,0,5.84-2.86,5.84-5.88,0-1.22-.39-2.46-1.24-3.56-9.36-12.1-25.31-32.68-33.14-42.79-1.11-1.43-2.8-2.26-4.61-2.26s-3.49.83-4.6,2.27c-7.8,10.11-23.69,30.71-33.03,42.79Z"/>
  </g>
  <g>
    <rect class="cls-5" x="319.75" y="309.79" width="206.91" height="206.91" rx="15.26" ry="15.26"/>
    <path class="cls-2" d="m460.9,395.43c.84-1.1,1.22-2.34,1.22-3.55,0-3.03-2.38-5.88-5.83-5.88h-66.17c-3.46,0-5.84,2.86-5.84,5.88,0,1.22.39,2.46,1.24,3.56,9.36,12.1,25.31,32.68,33.14,42.79,1.11,1.43,2.8,2.26,4.61,2.26s3.49-.83,4.6-2.27c7.8-10.11,23.69-30.71,33.03-42.79Z"/>
  </g>
  <g>
    <rect class="cls-5" x="547.96" y="309.79" width="206.91" height="206.91" rx="15.26" ry="15.26"/>
    <path class="cls-2" d="m633.6,375.55c-1.1-.84-2.34-1.22-3.55-1.22-3.03,0-5.88,2.38-5.88,5.83v66.17c0,3.46,2.86,5.84,5.88,5.84,1.22,0,2.46-.39,3.56-1.24,12.1-9.36,32.68-25.31,42.79-33.14,1.43-1.11,2.26-2.8,2.26-4.61s-.83-3.49-2.27-4.6c-10.11-7.8-30.71-23.69-42.79-33.03Z"/>
  </g>
  <g>
    <rect class="cls-5" x="87.02" y="309.79" width="206.91" height="206.91" rx="15.26" ry="15.26"/>
    <path class="cls-2" d="m208.29,450.94c1.1.84,2.34,1.22,3.55,1.22,3.03,0,5.88-2.38,5.88-5.83v-66.17c0-3.46-2.86-5.84-5.88-5.84-1.22,0-2.46.39-3.56,1.24-12.1,9.36-32.68,25.31-42.79,33.14-1.43,1.11-2.26,2.8-2.26,4.61s.83,3.49,2.27,4.6c10.11,7.8,30.71,23.69,42.79,33.03Z"/>
  </g>
  <g>
    <g>
      <polygon class="cls-6" points="647.94 362.67 626.08 347.22 619.86 344.11 633.03 358.14 640.8 368.05 619.7 350.68 618.66 352.03 621.83 357.75 627.14 366.11 623.59 365.1 617.41 360.9 616.96 363.16 612.18 360.11 617.11 369.27 625.75 384.03 606.4 360.89 606.67 364.21 599.03 355.83 614.39 382.63 615.61 388.57 600.53 367.32 593.04 357.55 606.04 384.6 593.22 364.34 604.01 389.6 606.52 399.74 601.22 393.55 587.68 367.59 585.63 366.83 598.44 403.98 590.15 388.15 579.9 364.78 582.33 376.99 580.21 375.97 583.53 393.5 583.92 402.62 577.27 385.18 576.25 388.92 572.41 380.09 569.77 375.7 566.48 366.66 568.26 387.19 564.51 373.88 566.41 402.33 560.57 367.08 562.32 403.92 560.19 403.98 557.61 395.29 554.93 374.68 553.25 370.13 551.68 407.26 549.84 389.66 548.49 375.39 546.89 375.02 544.03 392.34 543.64 375.29 539.52 398.25 538.32 391.54 535.67 396.5 533.58 396.78 536.26 370.69 530.4 392.09 528.71 390.71 528.18 384.56 530.83 366.87 528.14 370.96 516.1 406.14 517.08 395.51 519.75 381.03 523.85 364.06 509.79 397.3 521.37 362.22 505.83 395.65 501.01 401.33 507.68 381.37 507.46 377.47 503.21 381.84 509.89 365 503.15 373.93 499.72 376.26 491.04 387.14 506.88 357.64 484.18 389.93 485.25 384.35 481.75 385.63 503.14 352.4 492.27 364.38 495.11 357.85 474.79 380.35 474.72 377.03 478.32 369.62 466.51 379.76 492.81 348.21 468.67 370.97 461.57 375.04 481.28 352.88 477.01 354.46 481.7 347.81 462.96 361.8 477.31 347.09 463.66 355.85 451.48 362.74 454.06 357.98 450.3 358 469.75 341.81 457.93 347.54 471.92 336.19 457.96 342.79 457.41 340.83 471.8 330.42 455.78 337.26 469.72 327.8 442.67 339.42 469.93 324.05 473.61 320.6 462.09 323.91 437.05 332.31 441.88 328.05 433.07 329.06 472.54 312.86 451.05 318.37 444.47 318.42 448.46 315.17 464.31 308.87 436.55 314.21 438.3 311.62 430.42 311.19 460.55 303.01 450.29 303.15 448.95 301.5 436.92 301.32 445.09 298.22 454.66 295.28 445.09 294.37 423.91 293.93 453.12 290.12 434.72 288.98 438.52 286.83 461.13 284.83 457.83 283.15 429.62 280.43 446.08 279.14 443.28 277.04 451.08 275.8 438.45 272.61 468.36 274.34 450.54 270.24 453.57 268.89 427.1 262.28 440.98 262.74 446.17 261.81 440.33 258.44 450.55 258.95 452.83 257.64 470.12 260.83 466.45 258.08 471.33 258.03 452.33 249.69 439.68 242.93 437.9 239.92 443 239.67 467.89 248.27 459.96 242.83 473.41 247.31 450.28 233.92 478.93 246.71 473.32 241.95 479.79 243.81 456.22 228.01 456.07 225.58 448.17 218.07 477.68 235.26 472.55 229.73 458.7 217.55 484.35 234.28 452.64 207.62 478.62 225.75 460.13 208.05 455.49 201.2 490.68 229.8 461.77 200.83 460.86 196.89 467.3 200.13 477.7 207.84 486.91 214.93 493.64 219.88 474.31 195.16 482.89 202.13 474.46 188.59 494.8 211.22 487.27 198.35 496.37 207.7 486.9 191.03 496.74 202.12 501.57 206.39 497.65 196.83 507.19 209.35 496.76 187.78 497.22 184.44 495.23 176.19 508.05 197.04 500.42 176.9 499.81 170.38 503.74 173.8 520.24 208.26 514.13 188.51 522.06 204.63 509.48 164.03 523.03 197.81 524.89 198.27 520.76 178.25 529.2 201.77 524 174.87 523.1 162.11 527.14 170.19 534.52 196.88 536.57 199.21 538.06 198.7 538.88 193.38 537.23 166.56 540.99 181.85 544.22 197.46 544.82 183.48 545.79 167.18 548.83 194.59 550.24 182.01 552.09 175.77 554.29 162.59 555.4 191.86 558.36 168.12 559.12 186.49 560.16 194.54 565.4 161.31 567.22 164.6 569.07 166.91 570 174.48 568.48 194.07 572.33 183.22 570.86 198.6 571.12 204.36 581.88 168.33 578.69 188 577.49 198.41 580.35 194.68 585.2 185.49 594.3 165.46 594.78 170.62 590.37 187.69 597.2 176.15 592.88 191.29 601.31 177.3 589.91 205.85 590.65 207.85 598 197.21 593.29 209.45 614.42 175.68 614.17 180.49 605.56 198.45 614.1 188.58 607.14 202.61 619.06 188.63 618.84 192.51 609.64 208.12 616.53 202.08 632.21 185.68 605.28 221.36 631.05 193.96 627.55 201.07 618.18 214.07 623.45 211.11 613.73 223.41 635.93 204.18 614.28 227.17 620.23 223.87 626.19 220.87 649.79 203.46 638.98 215.08 629.99 224.57 654.05 208.8 644.06 218.79 648.72 218.03 643.16 224.26 651.78 221.06 641.85 229.66 632.36 237.46 631.84 239.67 649.86 231.74 652.34 232.7 666.48 227.92 660.57 233.26 659.05 236.31 660.11 238.14 652.91 243.38 664.01 241.14 632.9 254.94 656.61 248.28 668.55 246.43 635.36 259.01 644.13 258.09 666.69 253.74 670.8 254.9 639.05 264.56 645.41 264.83 641.29 267.38 656.54 266.32 674.16 265.42 668.01 268.52 652.51 272.55 660.52 273.52 657.76 275.72 651.02 278.09 643.16 280.28 645.15 281.85 663.58 283.21 655.11 285.19 668.03 287.28 659.86 289.05 676.68 291.9 659.7 292.9 638.66 292.94 657.65 296.56 665.86 299.52 672.18 302.5 664.05 303.37 666.96 305.96 657.89 306.28 663.65 309.52 661.85 311.19 656.95 312.01 650.88 312.35 647.92 313.38 661.16 319.42 655.64 319.73 646.37 318.51 645.14 319.96 656.86 326.51 647.6 324.84 640.08 323.56 666.33 337.52 649.94 332.12 664.94 341.85 660.45 342.04 653.13 340.52 655.29 344.13 661.88 350.54 627.66 331.96 656.69 352.63 634.15 340.16 650.62 353.81 648.98 355.28 645.89 355.63 641.94 355.2 647.94 362.67"/>
      <polygon class="cls-4" points="647.94 362.67 626.08 347.22 619.86 344.11 633.03 358.14 640.8 368.05 619.7 350.68 618.66 352.03 621.83 357.75 627.14 366.11 623.59 365.1 617.41 360.9 616.96 363.16 612.18 360.11 617.11 369.27 625.75 384.03 606.4 360.89 606.67 364.21 599.03 355.83 614.39 382.63 615.61 388.57 600.53 367.32 593.04 357.55 606.04 384.6 593.22 364.34 604.01 389.6 606.52 399.74 601.22 393.55 587.68 367.59 585.63 366.83 598.44 403.98 590.15 388.15 579.9 364.78 582.33 376.99 580.21 375.97 583.53 393.5 583.92 402.62 577.27 385.18 576.25 388.92 572.41 380.09 569.77 375.7 566.48 366.66 568.26 387.19 564.51 373.88 566.41 402.33 560.57 367.08 562.32 403.92 560.19 403.98 557.61 395.29 554.93 374.68 553.25 370.13 551.68 407.26 549.84 389.66 548.49 375.39 546.89 375.02 544.03 392.34 543.64 375.29 539.52 398.25 538.32 391.54 535.67 396.5 533.58 396.78 536.26 370.69 530.4 392.09 528.71 390.71 528.18 384.56 530.83 366.87 528.14 370.96 516.1 406.14 517.08 395.51 519.75 381.03 523.85 364.06 509.79 397.3 521.37 362.22 505.83 395.65 501.01 401.33 507.68 381.37 507.46 377.47 503.21 381.84 509.89 365 503.15 373.93 499.72 376.26 491.04 387.14 506.88 357.64 484.18 389.93 485.25 384.35 481.75 385.63 503.14 352.4 492.27 364.38 495.11 357.85 474.79 380.35 474.72 377.03 478.32 369.62 466.51 379.76 492.81 348.21 468.67 370.97 461.57 375.04 481.28 352.88 477.01 354.46 481.7 347.81 462.96 361.8 477.31 347.09 463.66 355.85 451.48 362.74 454.06 357.98 450.3 358 469.75 341.81 457.93 347.54 471.92 336.19 457.96 342.79 457.41 340.83 471.8 330.42 455.78 337.26 469.72 327.8 442.67 339.42 469.93 324.05 473.61 320.6 462.09 323.91 437.05 332.31 441.88 328.05 433.07 329.06 472.54 312.86 451.05 318.37 444.47 318.42 448.46 315.17 464.31 308.87 436.55 314.21 438.3 311.62 430.42 311.19 460.55 303.01 450.29 303.15 448.95 301.5 436.92 301.32 445.09 298.22 454.66 295.28 445.09 294.37 423.91 293.93 453.12 290.12 434.72 288.98 438.52 286.83 461.13 284.83 457.83 283.15 429.62 280.43 446.08 279.14 443.28 277.04 451.08 275.8 438.45 272.61 468.36 274.34 450.54 270.24 453.57 268.89 427.1 262.28 440.98 262.74 446.17 261.81 440.33 258.44 450.55 258.95 452.83 257.64 470.12 260.83 466.45 258.08 471.33 258.03 452.33 249.69 439.68 242.93 437.9 239.92 443 239.67 467.89 248.27 459.96 242.83 473.41 247.31 450.28 233.92 478.93 246.71 473.32 241.95 479.79 243.81 456.22 228.01 456.07 225.58 448.17 218.07 477.68 235.26 472.55 229.73 458.7 217.55 484.35 234.28 452.64 207.62 478.62 225.75 460.13 208.05 455.49 201.2 490.68 229.8 461.77 200.83 460.86 196.89 467.3 200.13 477.7 207.84 486.91 214.93 493.64 219.88 474.31 195.16 482.89 202.13 474.46 188.59 494.8 211.22 487.27 198.35 496.37 207.7 486.9 191.03 496.74 202.12 501.57 206.39 497.65 196.83 507.19 209.35 496.76 187.78 497.22 184.44 495.23 176.19 508.05 197.04 500.42 176.9 499.81 170.38 503.74 173.8 520.24 208.26 514.13 188.51 522.06 204.63 509.48 164.03 523.03 197.81 524.89 198.27 520.76 178.25 529.2 201.77 524 174.87 523.1 162.11 527.14 170.19 534.52 196.88 536.57 199.21 538.06 198.7 538.88 193.38 537.23 166.56 540.99 181.85 544.22 197.46 544.82 183.48 545.79 167.18 548.83 194.59 550.24 182.01 552.09 175.77 554.29 162.59 555.4 191.86 558.36 168.12 559.12 186.49 560.16 194.54 565.4 161.31 567.22 164.6 569.07 166.91 570 174.48 568.48 194.07 572.33 183.22 570.86 198.6 571.12 204.36 581.88 168.33 578.69 188 577.49 198.41 580.35 194.68 585.2 185.49 594.3 165.46 594.78 170.62 590.37 187.69 597.2 176.15 592.88 191.29 601.31 177.3 589.91 205.85 590.65 207.85 598 197.21 593.29 209.45 614.42 175.68 614.17 180.49 605.56 198.45 614.1 188.58 607.14 202.61 619.06 188.63 618.84 192.51 609.64 208.12 616.53 202.08 632.21 185.68 605.28 221.36 631.05 193.96 627.55 201.07 618.18 214.07 623.45 211.11 613.73 223.41 635.93 204.18 614.28 227.17 620.23 223.87 626.19 220.87 649.79 203.46 638.98 215.08 629.99 224.57 654.05 208.8 644.06 218.79 648.72 218.03 643.16 224.26 651.78 221.06 641.85 229.66 632.36 237.46 631.84 239.67 649.86 231.74 652.34 232.7 666.48 227.92 660.57 233.26 659.05 236.31 660.11 238.14 652.91 243.38 664.01 241.14 632.9 254.94 656.61 248.28 668.55 246.43 635.36 259.01 644.13 258.09 666.69 253.74 670.8 254.9 639.05 264.56 645.41 264.83 641.29 267.38 656.54 266.32 674.16 265.42 668.01 268.52 652.51 272.55 660.52 273.52 657.76 275.72 651.02 278.09 643.16 280.28 645.15 281.85 663.58 283.21 655.11 285.19 668.03 287.28 659.86 289.05 676.68 291.9 659.7 292.9 638.66 292.94 657.65 296.56 665.86 299.52 672.18 302.5 664.05 303.37 666.96 305.96 657.89 306.28 663.65 309.52 661.85 311.19 656.95 312.01 650.88 312.35 647.92 313.38 661.16 319.42 655.64 319.73 646.37 318.51 645.14 319.96 656.86 326.51 647.6 324.84 640.08 323.56 666.33 337.52 649.94 332.12 664.94 341.85 660.45 342.04 653.13 340.52 655.29 344.13 661.88 350.54 627.66 331.96 656.69 352.63 634.15 340.16 650.62 353.81 648.98 355.28 645.89 355.63 641.94 355.2 647.94 362.67"/>
    </g>
    <path class="cls-3" d="m528.75,219.33c7.3-23.79-1.26-48.58-19.8-60.45-20.2-12.93-42.99-4.56-45.61-3.55"/>
    <path class="cls-3" d="m509.52,243.19c5.21-24.33-5.47-48.29-24.97-58.5-21.25-11.13-43.23-.81-45.74.42"/>
    <path class="cls-3" d="m493.44,269.87c2.69-24.73-10.39-47.48-30.83-55.63-22.28-8.89-43.08,3.62-45.46,5.1"/>
    <path class="cls-3" d="m484.92,302.93c.64-24.87-14.26-46.46-35.3-52.91-22.93-7.03-42.64,7.15-44.88,8.82"/>
    <path class="cls-3" d="m623.46,291.3c21.73-12.11,47.77-8.93,63.25,6.71,16.87,17.05,13.45,41.09,13.01,43.85"/>
    <path class="cls-3" d="m604.15,315.1c22.7-10.18,48.37-4.75,62.43,12.17,15.33,18.45,9.84,42.1,9.16,44.82"/>
    <path class="cls-3" d="m581.43,336.41c23.63-7.8,48.6.23,60.85,18.5,13.36,19.92,5.47,42.89,4.52,45.52"/>
    <path class="cls-3" d="m550.88,351.65c24.19-5.83,48.42,4.22,59.13,23.45,11.67,20.95,1.93,43.19.76,45.74"/>
    <g>
      <circle class="cls-1" cx="507.74" cy="270.13" r="36.03"/>
      <circle class="cls-6" cx="510.44" cy="273.01" r="29.28"/>
      <g>
        <ellipse class="cls-1" cx="530.89" cy="276.48" rx="12.63" ry="5.45" transform="translate(175.09 757.82) rotate(-81.04)"/>
        <ellipse class="cls-1" cx="530.89" cy="276.48" rx="12.63" ry="5.45" transform="translate(175.09 757.82) rotate(-81.04)"/>
      </g>
    </g>
    <g>
      <circle class="cls-1" cx="572.11" cy="322.88" r="35.79"/>
      <circle class="cls-6" cx="568.97" cy="320.35" r="29.09"/>
      <g>
        <ellipse class="cls-1" cx="589.04" cy="324.1" rx="12.55" ry="5.42" transform="translate(177.14 855.47) rotate(-81.04)"/>
        <ellipse class="cls-1" cx="589.04" cy="324.1" rx="12.55" ry="5.42" transform="translate(177.14 855.47) rotate(-81.04)"/>
      </g>
    </g>
    <ellipse class="cls-1" cx="524.35" cy="292.52" rx="1.96" ry="2.94" transform="translate(215.58 807.47) rotate(-88.21)"/>
    <ellipse class="cls-1" cx="583.05" cy="339.86" rx="1.96" ry="2.94" transform="translate(225.13 912) rotate(-88.21)"/>
  </g>
</svg>