<?xml version="1.0" encoding="UTF-8"?><svg id="a" xmlns="http://www.w3.org/2000/svg" viewBox="0 0 527.0051 458.31735"><defs><style>.b{fill:#010101;}.b,.c{stroke-width:0px;}.c{fill:#fff;}.d{stroke-linecap:round;stroke-width:14.91298px;}.d,.e{fill:none;stroke:#010101;stroke-miterlimit:10;}.e{stroke-width:.55233px;}</style></defs><polygon class="b" points="382.75867 250.21969 357.7653 257.0296 404.47244 252.8798 384.65912 258.52034 397.67071 260.01616 346.94757 267.47272 346.11428 269.6895 393.54167 269.42787 361.18469 273.46834 380.84755 275.57669 362.33132 278.26979 401.93283 281.52121 397.15075 284.46652 365.2914 285.70066 350.28767 287.05592 343.78028 288.66592 355.12199 292.03437 396.40474 299.70668 346.20551 295.36775 351.25672 298.38812 392.90347 308.37742 399.15797 312.73006 390.64578 314.056 368.00335 311.67518 372.12668 315.42688 343.43509 310.18561 399.76005 329.28448 389.25843 329.32054 384.41041 330.89238 384.22279 333.97973 362.93025 329.10352 380.28234 338.8314 363.91568 335.15122 358.87365 335.82612 374.46287 345.88031 377.39395 350.52626 367.29764 348.75533 337.01781 335.90477 345.79067 343.29444 363.09358 356.05686 348.24368 350.42327 379.06053 372.63376 332.96684 346.5342 341.15324 354.78316 331.99144 351.37149 370.05462 381.89639 332.46517 357.47841 326.24333 355.61002 340.50228 370.09868 319.96959 356.228 358.13391 392.43143 313.01049 355.80351 319.02337 364.29046 319.88735 368.28006 347.64104 399.51271 343.89773 400.03219 311.80599 369.78469 328.30728 391.63774 331.3998 399.40576 335.82765 409.22471 315.49585 388.7016 331.83612 414.03593 312.52647 393.20629 299.98558 380.09509 300.8717 385.33689 299.10911 386.89517 293.91154 383.08464 300.2415 397.68757 292.35998 389.23209 289.26587 388.43986 290.42759 395.3557 280.63255 381.61409 286.91017 399.00175 284.68803 399.95057 288.35933 413.96579 278.20257 397.07212 289.46506 430.79622 290.68983 442.13586 267.28127 387.48428 275.4083 417.2941 267.52071 401.65243 265.82673 404.0704 270.22153 427.88178 260.79223 403.53354 266.04865 434.19965 255.24985 400.24015 252.15468 396.5037 253.71683 415.9693 255.61079 441.24821 249.14904 419.32474 250.40505 446.74992 243.70506 417.00453 244.0765 444.74161 239.19896 423.09013 235.91594 413.28905 233.76914 418.88548 231.20157 417.59171 228.49419 403.52567 226.21706 413.80699 223.91914 407.55057 220.11052 445.75544 219.86259 397.31295 214.96191 434.07172 210.80041 448.54632 206.76472 457.08009 206.83626 431.42683 208.01401 404.55587 197.9092 451.35081 201.60736 414.05666 199.11967 413.87513 188.05161 452.22152 197.20218 400.68733 195.20452 399.40739 192.8109 399.64034 192.21063 393.76726 191.04601 390.30743 188.77145 390.45354 183.73666 398.20391 181.80841 396.84673 165.43903 431.69815 181.12266 386.74397 166.07993 415.59382 162.95338 415.94528 154.58675 426.97521 154.92361 419.76469 151.3782 420.3885 165.86867 388.19733 142.25089 424.69811 141.77924 419.60182 152.80712 396.35528 134.07981 420.62409 126.42258 426.54178 143.64566 396.37961 126.89472 415.00924 154.18742 373.82702 136.1628 393.34996 123.0737 405.30508 127.27281 395.76315 127.19103 391.66568 116.37931 399.58911 122.94588 388.29419 127.35229 379.87239 112.98052 390.55966 108.51675 390.87531 131.05526 366.04997 124.42412 368.84982 107.03571 380.58833 108.3443 375.83902 104.58534 375.33038 87.36595 385.08661 89.68101 379.45017 132.52681 345.03361 85.42256 374.97925 106.62697 357.24725 103.5707 356.14548 113.64916 346.91792 99.8456 352.28835 77.68653 361.76701 120.13938 335.34899 111.59706 337.33668 93.19037 343.86359 80.78688 346.78163 70.54826 348.23236 104.85176 330.17298 63.01699 344.69194 78.50311 335.30269 97.60164 325.26967 79.2624 329.02788 109.49175 316.21498 76.61384 324.00786 85.72578 318.46675 59.73143 322.73494 68.02465 317.48339 85.49616 310.45071 63.61274 312.45271 102.401 301.8905 68.81078 305.49931 55.30471 304.73858 98.11499 295.61691 52.95238 298.79362 71.79093 293.69001 102.98186 288.20405 57.10125 289.12059 77.04179 285.07172 83.36815 282.18635 90.71984 279.51534 64.43383 277.00524 46.34193 273.72445 77.89729 271.72725 89.04452 269.69825 97.64208 267.87501 64.751 262.49057 111.17427 264.73547 71.17316 257.46076 110.59194 260.46056 76.69034 252.69785 57.79533 246.44046 55.24455 242.78744 101.99756 249.98097 87.34375 244.09982 55.37229 233.1292 68.41588 233.4917 90.45002 237.01716 90.51749 234.37364 113.69999 239.52731 57.88963 217.25205 62.68599 215.64452 68.9948 214.79216 115.64809 231.1108 81.67092 213.76046 108.29153 222.96359 65.81175 199.78458 123.73972 225.56739 82.605 201.45597 72.54065 192.57209 116.11385 214.03395 115.17768 210.81258 127.8191 215.96125 129.65443 214.66591 129.49503 212.06075 89.73014 181.63831 93.30901 180.54967 97.83298 180.27464 88.564 169.35318 90.14825 166.60477 123.67403 190.72976 112.62984 177.89171 127.6871 187.86429 115.04154 172.73421 140.86007 194.00322 126.31676 176.32135 127.04948 173.40383 133.48883 176.57258 123.70393 161.91804 139.02503 175.47674 137.6195 170.01929 136.5074 164.63712 130.09853 152.1017 128.43727 145.12337 140.67329 157.1553 153.90493 171.70084 159.36715 175.79051 142.32813 145.00109 145.56512 144.91037 150.97732 148.63431 144.6395 131.95692 142.75924 122.19281 166.74186 161.67359 175.4135 173.9486 176.04529 170.46098 164.60976 139.94957 173.02958 152.72512 179.13455 161.26166 165.03588 118.65937 169.78676 122.76355 171.9408 119.97932 186.25493 154.18371 183.43863 137.11253 191.78149 156.60954 184.38352 120.39071 194.97795 150.82361 189.14854 115.1976 191.15835 110.3517 197.04547 124.6758 198.86289 118.96156 203.3572 128.99166 205.27286 123.29933 207.81231 121.14978 210.78964 122.57326 215.29807 142.42872 219.0132 161.19284 219.99996 139.43096 222.8846 152.0328 224.95471 140.32889 227.52933 100.47448 230.23168 122.5372 233.30225 114.90068 235.58573 125.96459 238.99963 116.72866 239.5504 141.88775 245.47458 110.6703 246.43403 126.62435 244.66342 157.16814 253.47511 117.43859 250.21834 150.99955 256.25093 132.88222 260.28766 126.87809 264.681 120.42776 257.84525 158.1381 269.1541 125.87518 261.86448 160.06705 264.16165 160.06708 279.46972 121.71281 285.08865 114.74918 275.75338 148.10611 277.31618 150.85808 289.40035 128.39444 287.33394 140.22983 286.25508 148.94223 278.88106 169.96067 281.11699 170.27693 308.46943 123.20455 296.30939 151.66584 316.05756 122.51595 296.81186 160.81781 292.65539 172.0737 295.83046 171.26674 313.97452 148.41957 327.7054 133.6699 310.67522 162.41282 300.29558 180.38702 318.7804 160.31768 338.80265 139.88642 317.42128 170.19416 343.04331 144.65791 305.04755 191.35293 320.24839 178.18337 342.02655 159.26473 330.81768 174.55359 332.49284 176.56929 318.74314 192.84202 356.10779 162.49401 323.96589 194.23774 344.96457 179.7768 360.03873 171.22023 335.02762 194.35871 361.72846 177.55032 337.57232 198.52911 339.82089 199.92878 335.84853 205.49714 334.99837 208.80364 344.52257 205.65282 331.28281 216.29055 360.78742 202.13128 373.33937 198.46875 350.43416 213.66925 350.34193 216.48534 386.67274 202.03586 384.31808 206.56363 346.4421 226.18342 346.91195 228.49978 389.65188 214.42439 336.87998 237.11022 353.6859 233.49724 339.35998 240.70119 398.22739 224.83168 393.31669 229.57536 393.53853 232.71697 381.84513 238.81092 393.9613 238.93913 383.13438 244.36564 357.71715 252.20556 382.75867 250.21969"/><polygon class="e" points="382.75867 250.21969 357.7653 257.0296 404.47244 252.8798 384.65912 258.52034 397.67071 260.01616 346.94757 267.47272 346.11428 269.6895 393.54167 269.42787 361.18469 273.46834 380.84755 275.57669 362.33132 278.26979 401.93283 281.52121 397.15075 284.46652 365.2914 285.70066 350.28767 287.05592 343.78028 288.66592 355.12199 292.03437 396.40474 299.70668 346.20551 295.36775 351.25672 298.38812 392.90347 308.37742 399.15797 312.73006 390.64578 314.056 368.00335 311.67518 372.12668 315.42688 343.43509 310.18561 399.76005 329.28448 389.25843 329.32054 384.41041 330.89238 384.22279 333.97973 362.93025 329.10352 380.28234 338.8314 363.91568 335.15122 358.87365 335.82612 374.46287 345.88031 377.39395 350.52626 367.29764 348.75533 337.01781 335.90477 345.79067 343.29444 363.09358 356.05686 348.24368 350.42327 379.06053 372.63376 332.96684 346.5342 341.15324 354.78316 331.99144 351.37149 370.05462 381.89639 332.46517 357.47841 326.24333 355.61002 340.50228 370.09868 319.96959 356.228 358.13391 392.43143 313.01049 355.80351 319.02337 364.29046 319.88735 368.28006 347.64104 399.51271 343.89773 400.03219 311.80599 369.78469 328.30728 391.63774 331.3998 399.40576 335.82765 409.22471 315.49585 388.7016 331.83612 414.03593 312.52647 393.20629 299.98558 380.09509 300.8717 385.33689 299.10911 386.89517 293.91154 383.08464 300.2415 397.68757 292.35998 389.23209 289.26587 388.43986 290.42759 395.3557 280.63255 381.61409 286.91017 399.00175 284.68803 399.95057 288.35933 413.96579 278.20257 397.07212 289.46506 430.79622 290.68983 442.13586 267.28127 387.48428 275.4083 417.2941 267.52071 401.65243 265.82673 404.0704 270.22153 427.88178 260.79223 403.53354 266.04865 434.19965 255.24985 400.24015 252.15468 396.5037 253.71683 415.9693 255.61079 441.24821 249.14904 419.32474 250.40505 446.74992 243.70506 417.00453 244.0765 444.74161 239.19896 423.09013 235.91594 413.28905 233.76914 418.88548 231.20157 417.59171 228.49419 403.52567 226.21706 413.80699 223.91914 407.55057 220.11052 445.75544 219.86259 397.31295 214.96191 434.07172 210.80041 448.54632 206.76472 457.08009 206.83626 431.42683 208.01401 404.55587 197.9092 451.35081 201.60736 414.05666 199.11967 413.87513 188.05161 452.22152 197.20218 400.68733 195.20452 399.40739 192.8109 399.64034 192.21063 393.76726 191.04601 390.30743 188.77145 390.45354 183.73666 398.20391 181.80841 396.84673 165.43903 431.69815 181.12266 386.74397 166.07993 415.59382 162.95338 415.94528 154.58675 426.97521 154.92361 419.76469 151.3782 420.3885 165.86867 388.19733 142.25089 424.69811 141.77924 419.60182 152.80712 396.35528 134.07981 420.62409 126.42258 426.54178 143.64566 396.37961 126.89472 415.00924 154.18742 373.82702 136.1628 393.34996 123.0737 405.30508 127.27281 395.76315 127.19103 391.66568 116.37931 399.58911 122.94588 388.29419 127.35229 379.87239 112.98052 390.55966 108.51675 390.87531 131.05526 366.04997 124.42412 368.84982 107.03571 380.58833 108.3443 375.83902 104.58534 375.33038 87.36595 385.08661 89.68101 379.45017 132.52681 345.03361 85.42256 374.97925 106.62697 357.24725 103.5707 356.14548 113.64916 346.91792 99.8456 352.28835 77.68653 361.76701 120.13938 335.34899 111.59706 337.33668 93.19037 343.86359 80.78688 346.78163 70.54826 348.23236 104.85176 330.17298 63.01699 344.69194 78.50311 335.30269 97.60164 325.26967 79.2624 329.02788 109.49175 316.21498 76.61384 324.00786 85.72578 318.46675 59.73143 322.73494 68.02465 317.48339 85.49616 310.45071 63.61274 312.45271 102.401 301.8905 68.81078 305.49931 55.30471 304.73858 98.11499 295.61691 52.95238 298.79362 71.79093 293.69001 102.98186 288.20405 57.10125 289.12059 77.04179 285.07172 83.36815 282.18635 90.71984 279.51534 64.43383 277.00524 46.34193 273.72445 77.89729 271.72725 89.04452 269.69825 97.64208 267.87501 64.751 262.49057 111.17427 264.73547 71.17316 257.46076 110.59194 260.46056 76.69034 252.69785 57.79533 246.44046 55.24455 242.78744 101.99756 249.98097 87.34375 244.09982 55.37229 233.1292 68.41588 233.4917 90.45002 237.01716 90.51749 234.37364 113.69999 239.52731 57.88963 217.25205 62.68599 215.64452 68.9948 214.79216 115.64809 231.1108 81.67092 213.76046 108.29153 222.96359 65.81175 199.78458 123.73972 225.56739 82.605 201.45597 72.54065 192.57209 116.11385 214.03395 115.17768 210.81258 127.8191 215.96125 129.65443 214.66591 129.49503 212.06075 89.73014 181.63831 93.30901 180.54967 97.83298 180.27464 88.564 169.35318 90.14825 166.60477 123.67403 190.72976 112.62984 177.89171 127.6871 187.86429 115.04154 172.73421 140.86007 194.00322 126.31676 176.32135 127.04948 173.40383 133.48883 176.57258 123.70393 161.91804 139.02503 175.47674 137.6195 170.01929 136.5074 164.63712 130.09853 152.1017 128.43727 145.12337 140.67329 157.1553 153.90493 171.70084 159.36715 175.79051 142.32813 145.00109 145.56512 144.91037 150.97732 148.63431 144.6395 131.95692 142.75924 122.19281 166.74186 161.67359 175.4135 173.9486 176.04529 170.46098 164.60976 139.94957 173.02958 152.72512 179.13455 161.26166 165.03588 118.65937 169.78676 122.76355 171.9408 119.97932 186.25493 154.18371 183.43863 137.11253 191.78149 156.60954 184.38352 120.39071 194.97795 150.82361 189.14854 115.1976 191.15835 110.3517 197.04547 124.6758 198.86289 118.96156 203.3572 128.99166 205.27286 123.29933 207.81231 121.14978 210.78964 122.57326 215.29807 142.42872 219.0132 161.19284 219.99996 139.43096 222.8846 152.0328 224.95471 140.32889 227.52933 100.47448 230.23168 122.5372 233.30225 114.90068 235.58573 125.96459 238.99963 116.72866 239.5504 141.88775 245.47458 110.6703 246.43403 126.62435 244.66342 157.16814 253.47511 117.43859 250.21834 150.99955 256.25093 132.88222 260.28766 126.87809 264.681 120.42776 257.84525 158.1381 269.1541 125.87518 261.86448 160.06705 264.16165 160.06708 279.46972 121.71281 285.08865 114.74918 275.75338 148.10611 277.31618 150.85808 289.40035 128.39444 287.33394 140.22983 286.25508 148.94223 278.88106 169.96067 281.11699 170.27693 308.46943 123.20455 296.30939 151.66584 316.05756 122.51595 296.81186 160.81781 292.65539 172.0737 295.83046 171.26674 313.97452 148.41957 327.7054 133.6699 310.67522 162.41282 300.29558 180.38702 318.7804 160.31768 338.80265 139.88642 317.42128 170.19416 343.04331 144.65791 305.04755 191.35293 320.24839 178.18337 342.02655 159.26473 330.81768 174.55359 332.49284 176.56929 318.74314 192.84202 356.10779 162.49401 323.96589 194.23774 344.96457 179.7768 360.03873 171.22023 335.02762 194.35871 361.72846 177.55032 337.57232 198.52911 339.82089 199.92878 335.84853 205.49714 334.99837 208.80364 344.52257 205.65282 331.28281 216.29055 360.78742 202.13128 373.33937 198.46875 350.43416 213.66925 350.34193 216.48534 386.67274 202.03586 384.31808 206.56363 346.4421 226.18342 346.91195 228.49978 389.65188 214.42439 336.87998 237.11022 353.6859 233.49724 339.35998 240.70119 398.22739 224.83168 393.31669 229.57536 393.53853 232.71697 381.84513 238.81092 393.9613 238.93913 383.13438 244.36564 357.71715 252.20556 382.75867 250.21969"/><path class="d" d="M135.76344,241.55321c-18.49114-29.71486-52.70106-43.54728-82.40788-34.8427-32.37808,9.4873-44.55496,41.39511-45.89907,45.09661"/><path class="d" d="M143.30897,283.99873c-20.99962-27.9984-56.28071-38.81043-85.12024-27.56116-31.4328,12.26081-40.79527,45.10483-41.81316,48.90899"/><path class="d" d="M156.74735,325.70685c-23.75737-25.69983-59.96046-32.8407-87.49586-18.69621-30.0114,15.41637-35.95998,49.0467-36.5828,52.93512"/><path class="d" d="M183.95515,365.28007c-25.79063-23.65878-62.45837-27.79783-88.73713-11.43655-28.64176,17.8325-31.80418,51.83815-32.10507,55.76462"/><path class="d" d="M299.60412,207.57952c7.22938-34.2437,34.65711-58.92922,65.55048-60.89506,33.67132-2.14261,56.01454,23.68694,58.54212,26.70671"/><path class="d" d="M307.01044,250.04955c10.17328-33.48729,39.63942-55.69995,70.58685-54.9779,33.73024.78697,53.74809,28.45773,56.00413,31.68542"/><path class="d" d="M308.62644,293.83935c13.55029-32.26893,45.13693-51.34613,75.84757-47.45755,33.47217,4.23825,50.55003,33.81411,52.46355,37.25594"/><path class="d" d="M296.57193,340.3258c29.57474-29.27485,67.82164-33.4729,88.21552-16.97911,12.01642,9.71841,18.18324,26.90248,15.46531,41.42495-5.2444,28.02198-44.61153,51.70756-97.76288,48.05294"/><circle class="c" cx="170.2446" cy="310.77317" r="50.67652"/><circle class="b" cx="181.13609" cy="300.43477" r="41.18729"/><ellipse class="c" cx="203.7113" cy="281.94683" rx="7.67214" ry="17.76707" transform="translate(-133.55207 196.825) rotate(-39.98622)"/><ellipse class="c" cx="203.7113" cy="281.94683" rx="7.67214" ry="17.76707" transform="translate(-133.55207 196.825) rotate(-39.98622)"/><circle class="c" cx="285.66537" cy="291.22763" r="50.34933"/><circle class="b" cx="290.5835" cy="279.4809" r="40.92136"/><ellipse class="c" cx="313.11012" cy="261.66414" rx="7.62261" ry="17.65235" transform="translate(-94.9408 262.38293) rotate(-39.98622)"/><ellipse class="c" cx="313.11012" cy="261.66414" rx="7.62261" ry="17.65235" transform="translate(-94.9408 262.38293) rotate(-39.98622)"/><ellipse class="c" cx="214.6911" cy="303.70353" rx="4.1425" ry="2.76166" transform="translate(-153.97782 254.59825) rotate(-47.1562)"/><ellipse class="c" cx="324.28327" cy="282.57787" rx="4.1425" ry="2.76166" transform="translate(-103.41899 328.19218) rotate(-47.1562)"/><ellipse class="c" cx="428.36207" cy="98.86875" rx="75.91116" ry="76.22191" transform="translate(-7.23569 39.50812) rotate(-5.23652)"/><ellipse class="c" cx="488.91629" cy="95.23856" rx="38.11095" ry="35.07312" transform="translate(-6.65164 45.01959) rotate(-5.23652)"/><ellipse class="c" cx="472.77226" cy="138.46391" rx="38.11095" ry="35.07312" transform="translate(-10.66409 43.72657) rotate(-5.23652)"/><ellipse class="c" cx="431.37739" cy="152.8381" rx="38.11095" ry="35.07312" transform="translate(-12.14875 40.00856) rotate(-5.23652)"/><ellipse class="c" cx="382.80337" cy="140.68718" rx="38.11095" ry="35.07312" transform="translate(-11.24249 35.52463) rotate(-5.23652)"/><ellipse class="c" cx="367.36272" cy="97.03046" rx="38.11095" ry="35.07312" transform="translate(-7.3225 33.93319) rotate(-5.23652)"/><ellipse class="c" cx="378.40989" cy="55.01521" rx="38.11095" ry="35.07312" transform="translate(-3.44177 34.76609) rotate(-5.23652)"/><ellipse class="c" cx="424.227" cy="35.10212" rx="38.11095" ry="35.07312" transform="translate(-1.43313 38.86458) rotate(-5.23652)"/><ellipse class="c" cx="472.80306" cy="53.87442" rx="38.11095" ry="35.07312" transform="translate(-2.9437 43.37634) rotate(-5.23652)"/><ellipse class="c" cx="319.17011" cy="172.84013" rx="25.59368" ry="17.09033" transform="translate(-1.67775 3.13474) rotate(-.56125)"/><ellipse class="c" cx="276.13102" cy="198.1016" rx="17.67465" ry="10.77049" transform="translate(-1.92726 2.71436) rotate(-.56125)"/><path class="b" d="M417.89565,138.99806s4.75643.70233,6.62395-7.8309,8.21418-20.65769,25.02333-25.46586c16.80915-4.80817,22.72185-15.02228,24.82884-29.29156,2.10699-14.26928-8.70453-37.73628-39.74299-43.53442-28.83583-4.25787-48.01534,16.60324-50.5313,27.47078s-.52889,22.09625,7.96045,24.26105,13.24183-5.33492,12.45778-10.31082-.08565-17.93438,24.31101-18.5846c24.56225.2855,26.69494,16.69959,26.64105,19.1217s1.17305,12.62729-20.5442,21.87463-20.84754,32.15762-20.73584,35.51545c.1117,3.35783.10171,5.48266,3.70793,6.77455Z"/><circle class="b" cx="416.54659" cy="154.05673" r="9.38966"/></svg>