<?xml version="1.0" encoding="UTF-8"?>
<svg id="a" data-name="Layer 1" xmlns="http://www.w3.org/2000/svg" viewBox="0 0 759.87 148.79">
  <defs>
    <style>
      .b {
        fill: #faf073;
      }

      .c {
        fill: #8db83f;
      }

      .d {
        fill: #a2cd3b;
      }

      .e {
        fill: #bdd757;
      }

      .f {
        fill: #ee372a;
      }

      .g {
        fill: #f9c11a;
      }

      .h {
        fill: #d72327;
      }

      .i {
        fill: #ab1f23;
      }

      .j {
        fill: #363639;
      }

      .k {
        fill: #fae621;
      }
    </style>
  </defs>
  <path d="m759.86,68.22c-22.32-2.36-44.56-5.62-66.74.29-1.59.42-3.28.9-5.05,1.44-11.12-18.22-32.73-29.21-54-27.75-29.63,2.04-51.38,21.09-72.84,39.47-12.5,10.71-26.42,20.68-43.33,22.15-8.86.77-17.95-.58-26.29-3.8,5.41-6.9,8.47-15.36,7.44-24.99-.95-8.87-6.24-16.89-15.21-19.04-7.3-1.75-16.32.17-21.1,6.31-6.45,8.27-1.09,18.63,4.93,25.38,5.13,5.75,11.48,10.37,18.46,13.68-17.47,19.11-49.5,17.35-72.02,9-21.82-8.1-40.88-23.1-60.88-34.7-18.86-10.95-40.37-22.11-62.78-21.61-4.21.09-8.54.76-12.82,1.92-1.25-1.58-2.62-3.08-4.11-4.47-17.56-16.4-45.96-22.86-69.05-16.9-28.12,7.26-46.08,35.52-70.01,50.27-5.66,3.49-13.67,5.79-21.88,6.23,7.76-8.59,11.85-19.45,7.32-31.39-8.1-21.35-34.39-16.4-41.91,2.54-6.2,15.63,5.98,26.73,20.23,30.43,2.41.63,4.75,1.06,7.04,1.34-20.01,17.89-53.64,17.32-76.04,4.42-10.93-6.29-19.66-16.79-29.21-25.84v5.07c4.84,4.76,9.48,9.76,14.55,14.33,18.27,16.43,44.53,23.61,68.4,16.97,8.87-2.47,18.79-7.61,26.38-14.62,15.05.58,27.74-6.11,40.38-16.24,12.25-9.82,23.18-21.21,35.88-30.48,12.35-9.02,26.53-12.63,41.75-11.51,16.56,1.22,35.41,8.56,46.46,21-14.88,5.14-28.37,16.38-32.17,31.52-2.43,9.65.03,20.12,9.21,25.16,8.26,4.54,17.69,2.66,24.32-3.72,14.19-13.67,14.76-35.6,4.59-51.15,17.24-3.91,35.82,1.59,52.01,9.19,40.47,19,78.17,58.66,126.58,50.71,11.32-1.86,22.98-7.55,30.94-16.09,3.4,1.4,6.93,2.5,10.5,3.27,27.4,5.92,48.85-8.74,68.53-25.97,22.84-19.98,52.69-42.06,85.02-32.49,12.41,3.67,23.94,12.5,31.11,23.55-16.89,5.67-37.71,16.47-36.99,35.28.54,14,15.33,25.31,28.9,20.68,19.88-6.78,22.15-35.28,14.71-51.56-.39-.85-.81-1.69-1.24-2.51.34-.1.68-.21,1.01-.31,15.59-4.61,31.47-4.94,47.57-3.46,7.18.66,14.32,1.54,21.48,2.33v-3.36h0Zm-678.21,10.17c-6.62-11.12,3.49-26.52,14.84-29.23,9.27-2.21,17.43,3.83,20.43,12.38,2.72,7.74,1,15.81-3.3,22.62-1.62,2.56-3.44,4.9-5.43,7.02-10.84-.3-21.35-4.05-26.55-12.79Zm200.03,13.44c-3.92,13.61-19.67,30.23-33.29,15.9-13.14-13.83,3.47-33.92,15.19-41.81,4.02-2.71,8.21-4.67,12.5-6,6.43,8.59,9.23,19.31,5.6,31.91Zm193.98-1.15c-6.17-5.18-14.9-14.16-11.99-22.99,2.09-6.36,9.54-9.16,15.72-8.88,19.1.84,18.92,24.61,11.1,36.89-.66,1.04-1.37,2.02-2.1,2.97-4.58-2.09-8.88-4.76-12.73-7.98Zm209.77,24.81c-14.24,21.03-44.45.02-31.23-20.78,6.72-10.56,20.1-16.67,32.04-20.58,7.06,12.67,8.38,27.77-.82,41.36Z"/>
  <g>
    <path class="c" d="m34.32,80.06c2.65-7.8,11.12-11.98,18.93-9.33,7.8,2.65,11.98,11.12,9.33,18.93-2.65,7.8-11.12,11.98-18.93,9.33-7.8-2.65-11.98-11.12-9.33-18.92Z"/>
    <path d="m37.68,104.44c1.49.5,3.69,1.25,3.69,1.25,0,0,2.21.75,3.69,1.25,1.49.5,2.12-.26,2.12-.26l2.34-6.89-5.51-1.87-5.51-1.87-2.34,6.89s.03.99,1.52,1.5Z"/>
    <path class="d" d="m52.08,78.04c.28.23.54.46.79.71,7.68,7.62,3.44,18.64-7.53,17.71-7.24-.61-12.24-7.09-10.55-14.48,1.81-7.93,11.76-8.45,17.29-3.94Z"/>
    <path class="e" d="m39.13,91.24c-1.83-2.28-2.63-7.1,1.16-7.48,2.86-.29,6.72,2.31,6.55,5.36-.24,4.22-5.27,5.15-7.7,2.12Z"/>
    <path class="j" d="m38.06,101.89c-1.67-5.19,9.15-5.07,7.5-.13-1.12,3.36-6.42,3.49-7.5.13Z"/>
  </g>
  <g>
    <path class="g" d="m183.61,75.42c5.21,6.38,4.27,15.78-2.12,20.99-6.38,5.21-15.78,4.27-20.99-2.12-5.21-6.38-4.27-15.78,2.12-20.99,6.38-5.21,15.78-4.27,20.99,2.12Z"/>
    <path d="m161.15,65.35c-1.22.99-3.02,2.47-3.02,2.47,0,0-1.8,1.47-3.02,2.47-1.22.99-.9,1.94-.9,1.94l4.6,5.64,4.51-3.68,4.51-3.68-4.6-5.64s-.86-.5-2.08.5Z"/>
    <path class="k" d="m175.9,91.55c-.34.12-.68.21-1.03.29-10.53,2.48-17.63-6.96-11.03-15.77,4.36-5.82,12.5-6.62,17.87-1.27,5.76,5.74.93,14.45-5.82,16.75Z"/>
    <path class="b" d="m171.57,73.57c2.91-.35,7.42,1.53,5.73,4.95-1.27,2.57-5.52,4.47-8.02,2.71-3.45-2.44-1.58-7.19,2.29-7.65Z"/>
    <path class="j" d="m163.11,67.02c5.29,1.33-.55,10.45-3.87,6.43-2.26-2.73.44-7.29,3.87-6.43Z"/>
  </g>
  <g>
    <path class="c" d="m392.23,125.81c-3.71,7.36-12.69,10.31-20.04,6.6-7.36-3.71-10.31-12.69-6.6-20.04s12.69-10.31,20.04-6.6c7.36,3.71,10.31,12.69,6.6,20.04Z"/>
    <path d="m392.3,101.2c-1.4-.71-3.48-1.76-3.48-1.76,0,0-2.08-1.05-3.48-1.76-1.4-.71-2.13-.03-2.13-.03l-3.28,6.5,5.2,2.62,5.2,2.62,3.28-6.5s.11-.99-1.29-1.7Z"/>
    <path class="d" d="m374.36,125.33c-.24-.26-.47-.53-.69-.82-6.54-8.61-.8-18.93,9.93-16.48,7.08,1.62,11.13,8.73,8.42,15.81-2.9,7.59-12.83,6.72-17.67,1.49Z"/>
    <path class="e" d="m389.03,114.06c1.5,2.51,1.61,7.4-2.19,7.25-2.87-.12-6.33-3.23-5.73-6.22.83-4.14,5.93-4.36,7.92-1.02Z"/>
    <path class="j" d="m391.57,103.67c.93,5.37-9.77,3.74-7.45-.92,1.58-3.17,6.84-2.56,7.45.92Z"/>
  </g>
  <g>
    <path class="g" d="m319.53,35.94c3.47-7.47,12.34-10.72,19.82-7.24s10.72,12.34,7.24,19.82c-3.47,7.47-12.34,10.72-19.82,7.24-7.47-3.47-10.72-12.34-7.24-19.82Z"/>
    <path d="m320.25,60.54c1.43.66,3.54,1.64,3.54,1.64,0,0,2.11.98,3.54,1.64,1.43.66,2.13-.03,2.13-.03l3.07-6.6-5.28-2.45-5.28-2.45-3.06,6.6s-.08.99,1.35,1.65Z"/>
    <path class="k" d="m343.06,31.99c.25.25.49.52.71.79,6.82,8.4,1.41,18.9-9.39,16.8-7.13-1.39-11.41-8.36-8.93-15.53,2.65-7.68,12.6-7.13,17.61-2.06Z"/>
    <path class="b" d="m336.86,37.8c-1.58-2.47-1.85-7.34,1.95-7.31,2.87.02,6.43,3.02,5.93,6.03-.69,4.17-5.79,4.55-7.89,1.28Z"/>
    <path class="j" d="m320.9,58.05c-1.11-5.34,9.64-4.05,7.47.68-1.48,3.22-6.76,2.78-7.47-.68Z"/>
  </g>
  <g>
    <path class="i" d="m492.61,127.87c3.31,7.55-.12,16.35-7.67,19.66s-16.35-.12-19.66-7.67c-3.31-7.55.12-16.35,7.67-19.66,7.55-3.31,16.35.12,19.66,7.67Z"/>
    <path d="m473.67,112.14c-1.44.63-3.57,1.57-3.57,1.57,0,0-2.13.94-3.57,1.57-1.44.63-1.38,1.62-1.38,1.62l2.92,6.66,5.33-2.34,5.33-2.34-2.92-6.66s-.69-.71-2.13-.08Z"/>
    <path class="h" d="m480.86,141.34c-.36.02-.71.02-1.07,0-10.81-.43-15.12-11.43-6.4-18.15,5.76-4.43,13.82-3.03,17.56,3.57,4.01,7.07-2.98,14.17-10.1,14.58Z"/>
    <path class="f" d="m481.51,122.86c2.89.45,6.73,3.46,4.2,6.3-1.91,2.14-6.52,2.83-8.45.46-2.67-3.27.41-7.35,4.25-6.76Z"/>
    <path class="j" d="m475.11,114.28c4.74,2.7-3.33,9.91-5.45,5.16-1.44-3.24,2.38-6.91,5.45-5.16Z"/>
  </g>
  <g>
    <path class="i" d="m646.38,64.92c.74,8.21-5.31,15.46-13.52,16.2-8.21.74-15.46-5.31-16.2-13.52-.74-8.21,5.31-15.46,13.52-16.2,8.21-.74,15.46,5.31,16.2,13.52Z"/>
    <path d="m633.43,43.99c-1.57.14-3.88.35-3.88.35,0,0-2.32.21-3.88.35s-1.83,1.1-1.83,1.1l.65,7.25,5.8-.52,5.8-.52-.65-7.25s-.43-.89-2-.75Z"/>
    <path class="h" d="m630.96,73.96c-.34-.09-.68-.2-1.02-.33-10.11-3.85-10.69-15.65-.29-19.24,6.87-2.37,14.06,1.52,15.51,8.96,1.56,7.98-7.33,12.49-14.21,10.61Z"/>
    <path class="f" d="m637.45,56.64c2.6,1.34,5.28,5.43,1.97,7.31-2.49,1.42-7.08.61-8.16-2.25-1.49-3.95,2.73-6.84,6.18-5.06Z"/>
    <path class="j" d="m634.11,46.48c3.63,4.06-6.31,8.34-6.81,3.16-.33-3.53,4.45-5.79,6.81-3.16Z"/>
  </g>
  <g>
    <path class="g" d="m438.16,62.2c-6.39-5.21-7.35-14.6-2.14-20.99,5.21-6.39,14.6-7.35,20.99-2.14,6.39,5.21,7.35,14.6,2.14,20.99-5.21,6.39-14.6,7.35-20.99,2.14Z"/>
    <path d="m462.19,67.56c.99-1.22,2.46-3.02,2.46-3.02,0,0,1.47-1.81,2.46-3.02.99-1.22.49-2.08.49-2.08l-5.64-4.6-3.68,4.51-3.68,4.51,5.64,4.6s.94.32,1.94-.9Z"/>
    <path class="k" d="m443.58,40.86c.31-.18.62-.35.95-.5,9.82-4.54,18.66,3.28,13.97,13.24-3.1,6.57-10.91,9-17.25,4.83-6.8-4.46-3.81-13.97,2.34-17.58Z"/>
    <path class="b" d="m454.33,48.98c-2.78.92-7.57-.01-6.61-3.7.73-2.78,4.51-5.49,7.31-4.26,3.87,1.7,2.99,6.73-.7,7.96Z"/>
    <path class="j" d="m459.93,66.31c-5.44-.24-1.55-10.34,2.5-7.08,2.76,2.23,1.03,7.23-2.5,7.08Z"/>
  </g>
  <g>
    <circle class="c" cx="541.46" cy="72.08" r="14.92" transform="translate(437.14 608.26) rotate(-86.57)"/>
    <path d="m550.76,92.4c1.29-.89,3.21-2.21,3.21-2.21,0,0,1.92-1.32,3.21-2.21s1.05-1.86,1.05-1.86l-4.13-5.99-4.79,3.31-4.79,3.31,4.13,5.99s.82.57,2.11-.33Z"/>
    <path class="d" d="m539.85,58.43c.35-.09.7-.16,1.05-.21,10.69-1.62,17,8.37,9.71,16.61-4.81,5.44-12.99,5.59-17.92-.18-5.28-6.18.25-14.48,7.16-16.22Z"/>
    <path class="e" d="m542.84,68.83c-2.92.11-7.27-2.13-5.31-5.4,1.47-2.46,5.87-4.01,8.21-2.05,3.24,2.71.99,7.3-2.9,7.45Z"/>
    <path class="j" d="m548.94,90.57c-5.16-1.75,1.4-10.37,4.38-6.1,2.03,2.91-1.03,7.23-4.38,6.1Z"/>
  </g>
  <g>
    <path class="c" d="m709.86,44.31c.13-8.24,6.92-14.81,15.15-14.68s14.81,6.92,14.68,15.15c-.13,8.24-6.92,14.81-15.15,14.68-8.24-.13-14.81-6.92-14.68-15.15Z"/>
    <path d="m720.53,66.48c1.57.02,3.9.06,3.9.06,0,0,2.33.04,3.9.06,1.57.02,1.93-.9,1.93-.9l.12-7.27-5.82-.09-5.82-.09-.12,7.27s.34.94,1.91.96Z"/>
    <path class="d" d="m720.48,51.83c-.31-.17-.62-.36-.91-.56-8.95-6.08-6.79-17.69,4.17-18.79,7.23-.72,13.33,4.73,13.02,12.31-.33,8.12-10.02,10.45-16.28,7.03Z"/>
    <path class="e" d="m730.8,36.49c2.22,1.91,3.88,6.5.23,7.57-2.76.8-7.03-1.05-7.42-4.08-.54-4.19,4.23-6.03,7.19-3.49Z"/>
    <path class="j" d="m720.11,63.94c-3.18-4.42,7.16-7.63,7.1-2.42-.04,3.55-5.04,5.29-7.1,2.42Z"/>
  </g>
  <g>
    <path class="g" d="m717.27,96.48c7.95,2.15,12.65,10.35,10.5,18.3-2.15,7.95-10.35,12.65-18.3,10.5-7.95-2.15-12.65-10.35-10.5-18.3,2.15-7.95,10.35-12.66,18.3-10.5Z"/>
    <path d="m693.15,101.36c-.41,1.52-1.02,3.76-1.02,3.76,0,0-.61,2.25-1.02,3.76-.41,1.52.4,2.1.4,2.1l7.02,1.9,1.52-5.62,1.52-5.62-7.02-1.9s-.99.09-1.4,1.61Z"/>
    <path class="k" d="m720.4,114.08c-.21.29-.43.57-.66.84-7.12,8.14-18.38,4.6-18.15-6.41.16-7.26,6.31-12.66,13.79-11.44,8.02,1.31,9.17,11.21,5.02,17.01Z"/>
    <path class="b" d="m706.41,101.98c2.16-1.97,6.92-3.07,7.54.69.47,2.83-1.89,6.85-4.94,6.87-4.22.03-5.47-4.93-2.6-7.55Z"/>
    <path class="j" d="m695.72,101.58c5.07-2,5.63,8.82.6,7.48-3.43-.91-3.88-6.19-.6-7.48Z"/>
  </g>
  <g>
    <path class="i" d="m64.49,42.11c-4.73-6.75-3.1-16.05,3.65-20.78,6.75-4.73,16.05-3.1,20.78,3.65s3.1,16.05-3.65,20.78-16.05,3.1-20.78-3.65Z"/>
    <path d="m86.15,53.81c1.29-.9,3.19-2.24,3.19-2.24,0,0,1.91-1.34,3.19-2.24,1.29-.9,1.04-1.86,1.04-1.86l-4.18-5.96-4.77,3.34-4.77,3.34,4.18,5.96s.82.56,2.11-.34Z"/>
    <path class="h" d="m74.31,20.44c.34-.09.69-.16,1.05-.22,10.68-1.7,17.07,8.24,9.84,16.54-4.77,5.48-12.95,5.69-17.92-.04-5.33-6.14.14-14.48,7.03-16.28Z"/>
    <path class="f" d="m80.57,30.91c-2.92.13-7.28-2.07-5.35-5.35,1.46-2.47,5.84-4.05,8.19-2.11,3.26,2.69,1.04,7.29-2.84,7.47Z"/>
    <path class="j" d="m84.32,51.99c-5.17-1.71,1.32-10.38,4.33-6.13,2.05,2.89-.98,7.24-4.33,6.13Z"/>
  </g>
  <g>
    <circle class="c" cx="244.68" cy="14.92" r="14.92" transform="translate(-.45 13.43) rotate(-3.14)"/>
    <path d="m236.86,35.86c1.55.28,3.84.71,3.84.71,0,0,2.29.42,3.84.71,1.55.28,2.06-.57,2.06-.57l1.32-7.16-5.72-1.05-5.72-1.05-1.32,7.15s.17.98,1.72,1.26Z"/>
    <path class="d" d="m251.72,3.35c.31.18.6.38.89.59,8.7,6.42,6.1,17.94-4.89,18.61-7.25.44-13.14-5.24-12.54-12.8.64-8.1,10.42-10.06,16.54-6.4Z"/>
    <path class="e" d="m248.66,11.96c-2.14-1.99-3.63-6.65.06-7.57,2.78-.7,6.98,1.32,7.25,4.36.38,4.21-4.46,5.86-7.31,3.21Z"/>
    <path class="j" d="m236.87,33.28c-2.41-4.89,8.32-6.34,7.4-1.21-.62,3.49-5.85,4.38-7.4,1.21Z"/>
  </g>
  <g>
    <path class="i" d="m299.09,115.27c5.59,6.05,5.21,15.49-.84,21.08-6.05,5.59-15.49,5.21-21.08-.84-5.59-6.05-5.21-15.49.84-21.08,6.05-5.59,15.49-5.22,21.08.84Z"/>
    <path d="m276.06,106.58c-1.15,1.07-2.86,2.65-2.86,2.65,0,0-1.71,1.58-2.86,2.65-1.15,1.07-.78,1.99-.78,1.99l4.94,5.34,4.28-3.95,4.28-3.95-4.94-5.34s-.89-.45-2.04.62Z"/>
    <path class="h" d="m292.38,131.84c-.33.14-.67.25-1.01.36-10.36,3.11-18.01-5.88-11.96-15.07,4-6.07,12.07-7.37,17.76-2.35,6.1,5.37,1.8,14.37-4.79,17.07Z"/>
    <path class="f" d="m286.96,114.16c2.88-.52,7.5,1.08,6.02,4.59-1.11,2.65-5.24,4.8-7.84,3.19-3.59-2.22-2.01-7.09,1.82-7.78Z"/>
    <path class="j" d="m278.12,108.14c5.36,1,.08,10.46-3.47,6.65-2.42-2.59,0-7.3,3.47-6.65Z"/>
  </g>
</svg>