<svg xmlns="http://www.w3.org/2000/svg" viewBox="0 0 734.42041 484.97623"><defs><style>.a{fill:#18090d;}.a,.b{stroke:#fbfbfb;stroke-linecap:round;stroke-miterlimit:10;stroke-width:2px;}.b{fill:none;}</style></defs><path class="a" d="M309.59235,138.89809Q154.79618,367.08685,0,595.27557" transform="translate(1 -111.29936)"/><path class="a" d="M508.62421,227.86624,0,595.27557" transform="translate(1 -111.29936)"/><path class="a" d="M667.29938,368.19745Q333.64967,481.73653,0,595.27557" transform="translate(1 -111.29936)"/><path class="a" d="M98.63694,112.29936Q49.31847,353.78748,0,595.27557" transform="translate(1 -111.29936)"/><path class="a" d="M732.42041,539.71338Q366.2102,567.49451,0,595.27557" transform="translate(1 -111.29936)"/><path class="b" d="M716.59873,643.81529" transform="translate(1 -111.29936)"/><path class="b" d="M0,145.08917C49.31847,153.344,95.6497,126.9264,95.6497,126.9264s70.54875,62.79651,194.526,40.59429c0,0,94.96706,91.084,206.69506,68.83579,0,0,25.40321,115.98683,147.90319,139.50626,0,0-47.03977,116.452,60.8163,165.886,0,0-25.10613,32.50307-28.66027,53.52684" transform="translate(1 -111.29936)"/><path class="b" d="M0,206.5414c44.06369,8.71338,83.91728-22.16716,83.91728-22.16716s89.92985,55.41557,163.30565,43.492c0,0,56.00249,76.31516,164.81282,69.77156,0,0,26.10922,105.83918,133.34884,112.04655,0,0-26.67121,104.3475,65.04853,140.1182,0,0-23.5414,31.79618-23.5414,45.473" transform="translate(1 -111.29936)"/><path class="b" d="M0,274.18471C38.56051,292.758,67.57547,264.392,67.57547,264.392s29.40028,38.81352,134.33279,33.2458c0,0,26.80178,73.99457,117.6888,66.77393,0,0,13.82172,78.01787,89.04227,91.80626,0,0-11.00279,84.41259,57.7904,103.67374,0,0-9.62718,18.344-9.32145,35.38385" transform="translate(1 -111.29936)"/><path class="b" d="M0,353.78747c30.99363,13.29936,50.118-3.91506,50.118-3.91506s15.41069,30.81035,99.37881,25.0263c0,0,19.90315,53.24917,80.82736,54.00007,0,0,15.47661,65.36161,68.46792,64.69957,0,0-4.79212,59.45027,45.65374,75.69464a55.26185,55.26185,0,0,0-5.656,25.98258" transform="translate(1 -111.29936)"/><path class="b" d="M0,425.75159c24.344,6.19109,35.03874-2.04336,35.03874-2.04336s10.4653,36.875,67.75787,20.03241c0,0,14.78259,45.14,54.38152,37.99587,0,0-2.49959,45.83984,40.10382,46.40517,0,0-9.67685,35.72456,21.20213,50.39972,0,0-3.82166,12.84077-2.59873,16.73419" transform="translate(1 -111.29936)"/><path class="b" d="M0,481.73651a26.03844,26.03844,0,0,0,23.579-1.91561s18.15431,24.70787,48.13479,9.73967c0,0,2.19646,30.56731,33.36235,29.81229,0,0-2.18841,27.98383,28.55244,30.42969,0,0-11.25429,26.26009,14.85186,34.20913,0,0-1.13677,7.05293-.43373,11.26389" transform="translate(1 -111.29936)"/><path class="b" d="M254.3121,666.51592" transform="translate(1 -111.29936)"/></svg>