<?xml version="1.0" encoding="UTF-8"?><svg id="Layer_2" xmlns="http://www.w3.org/2000/svg" viewBox="0 0 57.455 54.981"><defs><style>.cls-1{fill:none;stroke:#fff;stroke-miterlimit:10;stroke-width:5px;}</style></defs><g id="Layer_1-2"><path class="cls-1" d="m29.596,3.057l7.032,15.298c.139.303.426.512.758.551l16.722,1.96c.812.095,1.138,1.099.537,1.653l-12.376,11.415c-.245.226-.355.564-.289.891l3.303,16.509c.16.802-.694,1.422-1.406,1.022l-14.681-8.243c-.291-.163-.646-.163-.937,0l-14.681,8.243c-.713.4-1.567-.22-1.406-1.022l3.303-16.509c.065-.327-.044-.665-.289-.891L2.809,22.519c-.601-.554-.275-1.558.537-1.653l16.722-1.96c.331-.039.618-.247.758-.551l7.032-15.298c.341-.743,1.397-.743,1.738,0Z"/></g></svg>