<svg version="1.1" id="Layer_1" xmlns="http://www.w3.org/2000/svg" xmlns:xlink="http://www.w3.org/1999/xlink" x="0px" y="0px" viewBox="0 0 100 60.2" style="enable-background:new 0 0 100 60.2;" xml:space="preserve">
<path d="M1.7,51.9c0,3.6,2.9,6.5,6.5,6.5h83.7c3.6,0,6.5-2.9,6.5-6.5V8.8c0-3.6-2.9-6.5-6.5-6.5L8.2,2.2c-3.6,0-6.5,2.9-6.5,6.5  C1.7,8.7,1.7,51.9,1.7,51.9z M72.4,47.4c0,0.6-0.5,1.1-1.1,1.1H69h-2.3h-8.8h-4.6h-8.7H40H26.7c-0.6,0-1.1-0.5-1.1-1.1v-4.5  c0-0.6,0.5-1.1,1.1-1.1H40h4.6h8.7h4.6h8.8H69h2.3c0.6,0,1.1,0.5,1.1,1.1V47.4z M85.8,47.4c0,0.6-0.5,1.1-1.1,1.1h-4.6  c-0.6,0-1.1-0.5-1.1-1.1v-4.5c0-0.6,0.5-1.1,1.1-1.1h4.6c0.6,0,1.1,0.5,1.1,1.1V47.4z M78.9,16.1c0-0.6,0.5-1.1,1.1-1.1h4.6  c0.6,0,1.1,0.5,1.1,1.1v4.5c0,0.6-0.5,1.1-1.1,1.1h-4.5c-0.6,0-1.1-0.5-1.1-1.1L78.9,16.1L78.9,16.1z M73.2,28.3h4.6  c0.6,0,1.1,0.5,1.1,1.1v4.5c0,0.6-0.5,1.1-1.1,1.1h-4.6c-0.6,0-1.1-0.5-1.1-1.1v-4.5C72.2,28.8,72.7,28.3,73.2,28.3z M65.6,16.1  c0-0.6,0.5-1.1,1.1-1.1h4.6c0.6,0,1.1,0.5,1.1,1.1v4.5c0,0.6-0.5,1.1-1.1,1.1h-4.6c-0.6,0-1.1-0.5-1.1-1.1V16.1z M60,28.3h4.6  c0.6,0,1.1,0.5,1.1,1.1v4.5c0,0.6-0.5,1.1-1.1,1.1H60c-0.6,0-1.1-0.5-1.1-1.1v-4.5C58.8,28.8,59.3,28.3,60,28.3z M52.2,16.1  c0-0.6,0.5-1.1,1.1-1.1h4.6c0.6,0,1.1,0.5,1.1,1.1v4.5c0,0.6-0.5,1.1-1.1,1.1h-4.6c-0.6,0-1.1-0.5-1.1-1.1V16.1z M46.6,28.3h4.6  c0.6,0,1.1,0.5,1.1,1.1v4.5c0,0.6-0.5,1.1-1.1,1.1h-4.6c-0.6,0-1.1-0.5-1.1-1.1v-4.5C45.5,28.8,46,28.3,46.6,28.3z M38.9,16.1  c0-0.6,0.5-1.1,1.1-1.1h4.6c0.6,0,1.1,0.5,1.1,1.1v4.5c0,0.6-0.5,1.1-1.1,1.1H40c-0.6,0-1.1-0.5-1.1-1.1V16.1z M33.3,28.3h4.6  c0.6,0,1.1,0.5,1.1,1.1v4.5c0,0.6-0.5,1.1-1.1,1.1h-4.6c-0.6,0-1.1-0.5-1.1-1.1v-4.5C32.2,28.8,32.7,28.3,33.3,28.3z M25.5,16.1  c0-0.6,0.5-1.1,1.1-1.1h4.6c0.6,0,1.1,0.5,1.1,1.1v4.5c0,0.6-0.5,1.1-1.1,1.1h-4.6c-0.6,0-1.1-0.5-1.1-1.1V16.1z M19.9,28.3h4.6  c0.6,0,1.1,0.5,1.1,1.1v4.5c0,0.6-0.5,1.1-1.1,1.1h-4.6c-0.6,0-1.1-0.5-1.1-1.1v-4.5C18.8,28.8,19.3,28.3,19.9,28.3z M12.2,16.1  c0-0.6,0.5-1.1,1.1-1.1h4.6c0.6,0,1.1,0.5,1.1,1.1v4.5c0,0.6-0.5,1.1-1.1,1.1h-4.6c-0.6,0-1.1-0.5-1.1-1.1V16.1z M12.2,42.9  c0-0.6,0.5-1.1,1.1-1.1h4.6c0.6,0,1.1,0.5,1.1,1.1v4.5c0,0.6-0.5,1.1-1.1,1.1h-4.6c-0.6,0-1.1-0.5-1.1-1.1V42.9z" fill="#ffffff"/>
</svg>