<svg xmlns="http://www.w3.org/2000/svg" xmlns:xlink="http://www.w3.org/1999/xlink" version="1.1" x="0px" y="0px" style="enable-background:new 0 0 200 200;" xml:space="preserve" viewBox="5.8 47.27 188.5 105.44">
<style type="text/css">
	.st0{display:none;fill:none;stroke:#000000;stroke-width:0.25;stroke-miterlimit:10;}
	.st1{fill:none;stroke:#000000;stroke-width:14;stroke-linecap:round;stroke-miterlimit:10;}
	.st2{fill:none;stroke:#FFFFFF;stroke-width:11;stroke-linecap:round;stroke-miterlimit:10;}
	.st3{fill:none;stroke:#FFFFFF;stroke-width:8;stroke-linecap:round;stroke-miterlimit:10;}
	.st4{fill:none;stroke:#FFFFFF;stroke-width:14;stroke-linecap:round;stroke-miterlimit:10;}
	.st5{fill:#FFFFFF;}
</style>
<g id="Layer_1">
</g>
<g id="Layer_2">
	<line class="st0" x1="100" y1="-12.1" x2="100" y2="207"/>
	<line class="st0" x1="-9.7" y1="141.6" x2="209.5" y2="141.6"/>
	<g>
		<path class="st1" d="M25.3,118.6"/>
		<path class="st2" d="M115.9,86.5"/>
		<path class="st2" d="M39.6,140.1c2.2-30.5,27.2-54.7,57.4-55.9"/>
		<path class="st3" d="M58.1,140.9c1.2-17.6,13.5-32.2,29.7-37"/>
		<path class="st4" d="M163.1,86.2c13.7,14.3,22.7,33.3,24.2,54.3"/>
		<path class="st4" d="M12.8,140.6C16,95.1,54.1,59.3,99.5,59.1c5.6,0,11.1,0.5,16.4,1.5"/>
		<path class="st5" d="M117.1,142.1c-1.7,3-5,8.3-11,10c-2.2,0.6-4.7,0.8-7.1,0.4c-7.3-1.1-13-7.2-13.8-14.5c-0.3-2.5,0-4.9,0.8-7.1    c1.5-4.3,4.1-7,4.7-7.6c3.9-4.1,27.2-32.9,60.7-74.8c2.4-2.9,7-0.2,5.5,3.3C143.6,82.8,120.5,136.1,117.1,142.1z"/>
	</g>
</g>
</svg>