<?xml version="1.0" encoding="UTF-8"?><svg id="Layer_1" xmlns="http://www.w3.org/2000/svg" viewBox="0 0 841.89 595.276"><defs><style>.cls-1{fill:#fff;}.cls-2{fill:none;stroke:#fff;stroke-linecap:round;stroke-miterlimit:10;stroke-width:48px;}</style></defs><path class="cls-1" d="m245.004,213.809l149.503-110.145c16.725-12.322,40.355-.38,40.355,20.393v336.801c0,20.748-23.578,32.696-40.31,20.427l-149.84-109.882c-4.302-3.155-9.49-4.871-14.824-4.903l-76.015-.466c-13.929-.085-25.175-11.401-25.175-25.33v-98.017c0-14.172,11.627-25.587,25.797-25.326l75.018,1.381c5.565.102,11.009-1.631,15.491-4.933Z"/><path class="cls-2" d="m524.671,188.698c5.262,3.918,51.027,39.248,51.678,101.342.668,63.734-46.773,100.375-51.678,104.027"/><path class="cls-2" d="m594.539,144.57c7.566,5.8,71.781,56.827,71.983,145.386.203,89.069-64.519,140.503-71.983,146.225"/></svg>